<svg xmlns="http://www.w3.org/2000/svg" viewBox="0 0 40 43.15"><defs><style>.cls-1{fill:#1b1b1f;}</style></defs><g id="Layer_2" data-name="Layer 2"><g id="Layer_1-2" data-name="Layer 1"><path class="cls-1" d="M30.22,40.24V37.63h2.92V17.32H30.22V34.71h-22V2.92H14.6V0H0V43.15H33.14V40.24ZM2.92,2.92H5.34V34.71H2.92Zm0,34.71H27.3v2.61H2.92Z"/><rect class="cls-1" x="33.14" y="34.71" height="2.92"/><path class="cls-1" d="M15.8,0V10.32h2.92v5.8h3.75l4.83-5.8V0Zm8.58,9.32-2.74,3.29V7.4H18.72V2.92h5.66Z"/><path class="cls-1" d="M28.5,0V10.32h2.92v5.8h3.75L40,10.32V0Zm8.58,9.32-2.74,3.29V7.4H31.42V2.92h5.66Z"/></g></g></svg>