<svg width="417" height="122" viewBox="0 0 417 122" fill="none" xmlns="http://www.w3.org/2000/svg">
<path d="M63.5108 63.9337C63.6628 64.4711 63.7911 65.1903 63.8958 66.0913C64.0005 66.9923 63.9597 67.8745 63.7735 68.7377C63.5873 69.6009 63.2288 70.3677 62.6979 71.0382C62.2397 71.7181 61.519 72.142 60.5358 72.31C59.5905 72.187 58.7051 71.887 57.8797 71.4099C57.1365 70.8696 56.4439 70.2249 55.8018 69.4758C55.1597 68.7268 54.595 67.9508 54.1078 67.1479C53.6301 66.2724 53.2203 65.4426 52.8786 64.6586C49.5334 64.2236 46.2435 63.6479 43.0089 62.9315C39.7743 62.215 36.7389 61.6724 33.9028 61.3036C33.2874 64.3295 32.5725 67.2685 31.7579 70.1206C30.9433 72.9727 30.1287 75.8248 29.3141 78.6769C28.5628 81.6112 27.8841 84.5549 27.2782 87.5081C26.7356 90.5435 26.4428 93.6483 26.3998 96.8226C26.3146 97.4771 26.179 98.2359 25.9928 99.0991C25.8793 99.9718 25.6346 100.716 25.2586 101.333C24.8826 101.95 24.3531 102.325 23.6703 102.458C22.978 102.663 22.0831 102.436 20.9858 101.776C18.4435 100.854 16.6819 99.3304 15.701 97.2061C14.72 95.0819 14.2227 92.6508 14.209 89.9128C14.1953 87.1749 14.542 84.2249 15.2489 81.063C15.9465 77.9739 16.712 74.9305 17.5455 71.933C18.4517 68.9449 19.2521 66.2018 19.9467 63.7039C20.7235 61.1427 21.1385 59.0891 21.1916 57.543C20.1859 56.7467 19.1471 56.2048 18.0752 55.9175C17.0855 55.567 16.0452 55.3208 14.9544 55.1789C13.9457 54.9738 12.9371 54.7687 11.9285 54.5636C10.9293 54.2857 9.95848 53.7898 9.01604 53.0756C7.89979 52.5607 6.66793 51.5131 5.32046 49.9328C3.90028 48.343 2.78989 46.6457 1.98931 44.8407C1.12545 42.9535 0.734286 41.1278 0.815806 39.3636C0.906784 37.5267 1.86422 36.1352 3.68811 35.1892C4.50989 34.5565 5.36183 34.2606 6.24394 34.3013C7.05333 34.3326 7.88016 34.5141 8.72445 34.8458C9.49601 35.168 10.2534 35.5992 10.9966 36.1396C11.7492 36.6072 12.4386 36.9927 13.0647 37.2959C14.8325 38.4872 16.624 39.4966 18.4391 40.3243C20.2636 41.0792 22.1245 41.8388 24.0218 42.6032C25.5825 39.7003 26.6626 36.5129 27.2619 33.0412C27.8708 29.4968 28.4069 25.9429 28.8702 22.3796C29.3431 18.7435 29.9472 15.2355 30.6825 11.8554C31.5001 8.4121 32.8615 5.33532 34.7669 2.62507C35.9902 1.74883 37.4839 1.35146 39.2481 1.43298C41.085 1.52396 42.5111 1.93125 43.5262 2.65488C45.7499 5.45838 47.5406 8.46439 48.8982 11.6729C50.3285 14.8909 51.4806 18.2576 52.3546 21.773C53.3012 25.2978 54.0883 28.9128 54.7157 32.618C55.3526 36.2505 56.0259 39.8877 56.7355 43.5296C57.4546 47.0988 58.3285 50.6142 59.3574 54.0758C60.3863 57.5373 61.7707 60.8233 63.5108 63.9337ZM47.375 46.4166C46.4981 43.4924 45.6718 40.4639 44.896 37.3311C44.1296 34.1255 42.8891 31.154 41.1745 28.4167C41.1177 28.853 41.0152 29.3574 40.8668 29.9297C40.7911 30.5114 40.6002 31.411 40.294 32.6283C40.07 33.7824 39.7165 35.3634 39.2335 37.3712C38.76 39.3063 38.0923 41.8817 37.2305 45.0974L47.375 46.4166Z" fill="#8337FF" fill-opacity="0.75"/>
<path d="M90.445 32.676C91.1431 32.7668 91.8072 33.1194 92.4372 33.7337C93.0729 34.3045 93.6015 35.0166 94.023 35.8701C94.4881 36.7292 94.8356 37.6396 95.0655 38.6013C95.2954 39.563 95.3564 40.4583 95.2486 41.2874C95.1901 42.0784 94.9466 42.7567 94.5181 43.3221C94.1389 43.8497 93.5291 44.1031 92.6888 44.0826L79.3372 42.3463C77.461 42.1023 75.5953 41.9485 73.74 41.8847C71.934 41.7829 70.0552 42.0711 68.1035 42.749C67.0811 43.1042 66.1079 42.911 65.1838 42.1697C64.3033 41.434 63.5821 40.4972 63.0202 39.3592C62.5075 38.1833 62.2216 36.9703 62.1623 35.7202C62.103 34.4701 62.4298 33.4921 63.1428 32.7861C66.1065 29.4444 69.0047 26.0942 71.8375 22.7355C74.7139 19.3824 77.4405 15.9876 80.0171 12.5512C78.4049 13.0071 76.8923 13.72 75.4794 14.6899C74.1159 15.6219 72.741 16.6411 71.3547 17.7475C70.7517 18.2903 70.1039 18.4945 69.4115 18.3601C68.7683 18.1877 68.1261 17.838 67.4847 17.3108C66.8926 16.7458 66.3612 16.0555 65.8904 15.24C65.4253 14.3808 65.0722 13.514 64.8309 12.6396C64.639 11.7272 64.5912 10.9002 64.6877 10.1584C64.7898 9.37304 65.1367 8.75259 65.7284 8.29709C67.839 6.3974 70.074 4.73574 72.4332 3.3121C74.8418 1.8505 77.4801 0.840283 80.3481 0.281463C82.1293 -0.108105 83.7227 -0.0783689 85.1286 0.37067C86.5401 0.776077 87.7373 1.46422 88.7203 2.43509C89.747 3.41163 90.5461 4.60263 91.1176 6.00806C91.6891 7.4135 92.0283 8.89965 92.1351 10.4665C92.1696 11.2253 92.0703 11.9889 91.8373 12.7572C91.6535 13.4876 91.3579 14.2257 90.9503 14.9713C90.5864 15.7227 90.1788 16.4683 89.7276 17.2083C89.2821 17.9047 88.8584 18.6039 88.4565 19.3059C87.3417 20.7139 86.2599 22.0375 85.2114 23.2766C84.2122 24.4778 83.3078 25.8022 82.4984 27.2499C81.7683 28.0868 81.0715 28.8392 80.4078 29.5072C79.7498 30.1315 79.2113 30.8602 78.7924 31.6931C80.6686 31.9371 82.5259 32.1564 84.3641 32.3511C86.246 32.5515 88.2729 32.6598 90.445 32.676Z" fill="#8337FF" fill-opacity="0.75"/>
<path d="M154.691 47.9484C156.193 47.774 157.549 48.431 158.761 49.9197C159.972 51.4084 160.823 53.109 161.314 55.0216C161.887 56.8709 161.992 58.6224 161.629 60.2761C161.266 61.9298 160.261 62.8344 158.614 62.9899C154.593 63.2065 150.612 63.3914 146.673 63.5447C142.734 63.6979 138.922 63.72 135.239 63.6107C135.413 65.1124 135.738 66.5967 136.213 68.0635C136.688 69.5303 137.194 71.0382 137.732 72.5872C138.317 73.7726 138.724 75.1936 138.953 76.8502C139.254 78.5162 138.946 80.0292 138.03 81.389C137.426 82.0501 136.719 82.3649 135.91 82.3336C135.173 82.3118 134.424 82.1034 133.662 81.7085C132.982 81.2503 132.348 80.7241 131.76 80.13C131.181 79.4631 130.747 78.8151 130.459 78.1861C130.143 77.7752 129.841 77.2552 129.553 76.6262C129.338 76.0066 129.072 75.4913 128.756 75.0804C128.85 74.3532 128.776 73.7889 128.532 73.3875C128.371 72.9228 128.314 72.5086 128.361 72.145C127.776 70.9596 127.241 69.6699 126.756 68.2758C126.272 66.8817 125.919 65.6156 125.697 64.4775C123.541 64.5669 121.489 64.7068 119.542 64.8973C117.667 65.0972 115.81 65.4472 113.97 65.9475C113.078 65.9795 112.247 65.8343 111.475 65.5122C110.704 65.19 109.987 64.7271 109.326 64.1234C108.738 63.5293 108.232 62.8719 107.808 62.1512C107.384 61.4305 107.038 60.6829 106.769 59.9084C106.598 59.5164 106.387 58.8605 106.137 57.9405C105.887 57.0206 105.751 56.0785 105.728 55.1142C105.715 54.0772 105.838 53.1318 106.097 52.2781C106.429 51.4338 107.054 50.8866 107.974 50.6365C110.905 50.2781 113.708 50.0509 116.382 49.9551C119.067 49.7865 121.874 49.523 124.805 49.1646C125.079 47.0557 125.408 44.806 125.793 42.4157C126.178 40.0254 126.689 37.7994 127.327 35.7377C127.469 34.6469 127.715 33.6067 128.066 32.6169C128.426 31.5545 128.677 30.4779 128.819 29.387C129.324 28.3435 129.806 27.4818 130.264 26.8019C130.732 26.0492 131.195 25.3329 131.653 24.653C131.912 23.7993 132.315 23.26 132.861 23.0354C133.418 22.7379 133.982 22.6634 134.554 22.8118C135.199 22.9696 135.83 23.2366 136.447 23.6125C137.064 23.9885 137.639 24.3962 138.174 24.8354C139.496 26.0427 140.325 27.6295 140.661 29.5959C141.069 31.5717 140.973 33.445 140.373 35.2158C140.232 36.3066 139.963 37.233 139.568 37.9952C139.183 38.6845 138.761 39.3692 138.303 40.0491C138.161 41.1399 137.924 42.1075 137.593 42.9518C137.27 43.7233 137.043 44.6182 136.911 45.6363C136.863 45.9999 136.688 46.4947 136.385 47.1208C136.154 47.7564 136.174 48.4614 136.443 49.2359C139.373 48.8775 142.394 48.6788 145.505 48.6396C148.698 48.5372 151.76 48.3068 154.691 47.9484Z" fill="#8337FF" fill-opacity="0.75"/>
<path d="M221.072 75.7709C222.163 77.6137 222.945 79.5641 223.417 81.6222C223.889 83.6802 223.992 85.7273 223.727 87.7635C223.545 89.7364 222.931 91.6163 221.885 93.403C220.839 95.1897 219.349 96.6968 217.414 97.9242C214.557 99.9931 211.53 101.374 208.334 102.068C205.211 102.771 201.939 103.196 198.518 103.343C197.5 103.21 196.538 102.642 195.634 101.637C194.792 100.714 194.016 99.5773 193.304 98.2276C192.665 96.8873 192.149 95.4522 191.756 93.9221C191.364 92.392 191.18 90.963 191.204 89.6351C191.302 88.3167 191.626 87.2495 192.175 86.4336C192.735 85.545 193.606 85.1036 194.788 85.1095C196.897 85.3837 199.039 85.4034 201.214 85.1686C203.471 84.8705 205.717 84.0903 207.952 82.828L208.825 82.9415C205.856 81.8898 202.804 80.9014 199.671 79.9762C196.537 79.0511 193.42 78.5717 190.318 78.5382C190.214 79.3381 190.245 80.5253 190.41 82.0997C190.575 83.6741 190.631 85.2344 190.577 86.7804C190.597 88.3359 190.376 89.7493 189.915 91.0204C189.536 92.2283 188.746 92.902 187.545 93.0416C186.017 92.843 184.806 92.2048 183.911 91.1271C183.089 90.0587 182.404 88.7865 181.856 87.3102C181.381 85.8434 180.994 84.2769 180.693 82.6109C180.464 80.9543 180.176 79.4748 179.828 78.1723C178.993 77.7679 178.237 77.0411 177.56 75.9917C176.883 74.9423 176.298 73.7569 175.804 72.4355C175.31 71.1141 174.93 69.7706 174.664 68.4049C174.48 66.9759 174.423 65.7113 174.492 64.611C174.634 63.5202 174.934 62.6348 175.392 61.9549C175.923 61.2844 176.697 61.0154 177.715 61.1478L178.37 61.2329C178.441 57.8404 178.639 54.6123 178.964 51.5486C179.361 48.4943 179.786 45.2219 180.24 41.7313C179.804 41.6745 179.49 41.8185 179.297 42.1632C179.104 42.5079 178.79 42.6519 178.353 42.5951C176.732 43.1237 175.242 42.6343 173.885 41.1267C172.538 39.5464 171.524 37.6767 170.843 35.5176C170.099 33.2763 169.86 31.1375 170.125 29.1013C170.326 26.9829 171.243 25.6231 172.874 25.0218C175.333 24.3063 178.227 23.9431 181.557 23.9324C184.959 23.9311 188.495 24.317 192.166 25.0902C195.846 25.7906 199.516 26.8594 203.174 28.2966C206.833 29.7337 210.19 31.5013 213.245 33.5994C216.382 35.6343 219.035 37.9761 221.205 40.6247C223.448 43.2827 224.911 46.2462 225.595 49.515C225.957 51.8545 225.864 53.987 225.318 55.9127C224.845 57.8478 224.058 59.6312 222.958 61.2631C221.868 62.8222 220.538 64.2391 218.967 65.5138C217.469 66.798 215.88 67.9226 214.202 68.8876C215.435 69.6395 216.609 70.5686 217.722 71.6747C218.908 72.7903 220.025 74.1557 221.072 75.7709ZM209.855 48.5774C208.185 47.7686 206.538 47.0737 204.912 46.4926C203.369 45.8482 201.763 45.1217 200.093 44.313C198.405 43.6497 196.874 43.1918 195.502 42.9394C194.13 42.687 192.826 42.4804 191.589 42.3197L189.447 58.791C190.74 58.5154 192.53 58.1195 194.815 57.6033C197.174 57.0965 199.478 56.4349 201.729 55.6183C203.98 54.8017 205.917 53.8335 207.542 52.7137C209.176 51.5211 209.947 50.1423 209.855 48.5774Z" fill="#8337FF" fill-opacity="0.75"/>
<path d="M257.075 54.3448C257.773 54.4356 258.437 54.7882 259.067 55.4026C259.703 55.9733 260.231 56.6854 260.653 57.5389C261.118 58.398 261.465 59.3084 261.695 60.2701C261.925 61.2318 261.986 62.1271 261.878 62.9562C261.82 63.7472 261.576 64.4255 261.148 64.991C260.769 65.5185 260.159 65.7719 259.318 65.7514L245.967 64.0151C244.091 63.7712 242.225 63.6173 240.37 63.5535C238.564 63.4518 236.685 63.7399 234.733 64.4178C233.711 64.773 232.738 64.5799 231.814 63.8385C230.933 63.1028 230.212 62.166 229.65 61.028C229.137 59.8521 228.851 58.6391 228.792 57.389C228.733 56.1389 229.06 55.1609 229.773 54.455C232.736 51.1132 235.634 47.763 238.467 44.4043C241.344 41.0512 244.07 37.6565 246.647 34.22C245.035 34.6759 243.522 35.3888 242.109 36.3587C240.746 37.2907 239.371 38.3099 237.984 39.4164C237.381 39.9591 236.734 40.1633 236.041 40.0289C235.398 39.8565 234.756 39.5068 234.114 38.9797C233.522 38.4146 232.991 37.7243 232.52 36.9088C232.055 36.0496 231.702 35.1828 231.461 34.3084C231.269 33.3961 231.221 32.569 231.317 31.8272C231.42 31.0419 231.766 30.4214 232.358 29.9659C234.469 28.0662 236.704 26.4046 239.063 24.9809C241.472 23.5193 244.11 22.5091 246.978 21.9503C248.759 21.5607 250.352 21.5904 251.758 22.0395C253.17 22.4449 254.367 23.133 255.35 24.1039C256.377 25.0804 257.176 26.2714 257.747 27.6769C258.319 29.0823 258.658 30.5685 258.765 32.1353C258.799 32.8941 258.7 33.6577 258.467 34.426C258.283 35.1564 257.988 35.8945 257.58 36.6401C257.216 37.3915 256.809 38.1372 256.357 38.8772C255.912 39.5735 255.488 40.2727 255.086 40.9747C253.971 42.3827 252.89 43.7063 251.841 44.9454C250.842 46.1466 249.938 47.471 249.128 48.9187C248.398 49.7556 247.701 50.508 247.038 51.176C246.38 51.8004 245.841 52.529 245.422 53.3619C247.298 53.6059 249.156 53.8253 250.994 54.0199C252.876 54.2203 254.903 54.3286 257.075 54.3448Z" fill="#8337FF" fill-opacity="0.75"/>
<path d="M272.006 62.4278L273.013 54.683L322.973 61.1798L321.965 68.9246L272.006 62.4278ZM269.183 84.135L270.19 76.3902L320.15 82.887L319.143 90.6318L269.183 84.135Z" fill="#8337FF" fill-opacity="0.75"/>
<path d="M369.939 90.9147C371.043 90.3926 372.152 90.3891 373.269 90.904C374.394 91.3462 375.436 92.1472 376.395 93.3072C377.363 94.3944 378.188 95.722 378.872 97.2899C379.565 98.785 380.035 100.288 380.282 101.799C380.539 103.238 380.473 104.597 380.085 105.878C379.778 107.095 379.069 108.001 377.956 108.596C376.442 109.435 374.504 110.403 372.143 111.501C369.864 112.536 367.362 113.578 364.637 114.629C361.922 115.607 359.061 116.566 356.054 117.506C353.058 118.374 350.152 119.105 347.339 119.701C344.516 120.369 341.83 120.833 339.282 121.093C336.797 121.436 334.645 121.489 332.827 121.252C329.507 119.489 326.977 117.053 325.237 113.942C323.569 110.841 322.522 107.525 322.093 103.994C321.675 100.39 321.779 96.7428 322.407 93.053C323.035 89.3631 324.024 86.0162 325.376 83.0121C327.452 78.9929 329.667 75.3245 332.021 72.0071C334.448 68.6991 337.001 65.5554 339.681 62.5761C342.443 59.5336 345.305 56.5779 348.266 53.7092C351.228 50.8405 354.24 47.8674 357.302 44.7899C358.133 44.0846 359.023 43.4977 359.971 43.0295C361.002 42.4979 362.04 42.1892 363.087 42.1035C364.143 41.945 365.202 42.0457 366.264 42.4058C367.409 42.7025 368.547 43.3312 369.68 44.2919C373.428 47.8853 375.854 51.9723 376.959 56.5531C378.147 61.0706 378.442 65.62 377.847 70.2015C377.225 72.7089 376.267 74.1004 374.974 74.3759C373.681 74.6515 372.323 74.29 370.9 73.2915C369.559 72.2297 368.307 70.7727 367.142 68.9204C366.06 67.0049 365.378 65.1414 365.096 63.3299C364.512 63.8454 363.932 64.3246 363.356 64.7675C362.863 65.1471 362.365 65.563 361.863 66.0153C356.553 71.0191 351.579 76.2883 346.94 81.8229C342.383 87.2943 338.558 93.6743 335.466 100.963C338.336 99.9313 341.251 99.1271 344.21 98.5505C347.169 97.974 350.092 97.3927 352.978 96.8067C355.937 96.2301 358.842 95.4986 361.694 94.6123C364.545 93.7259 367.294 92.4934 369.939 90.9147Z" fill="#8337FF" fill-opacity="0.75"/>
<path d="M411.348 74.4067C412.046 74.4975 412.71 74.8501 413.34 75.4645C413.975 76.0352 414.504 76.7473 414.925 77.6008C415.391 78.4599 415.738 79.3703 415.968 80.332C416.198 81.2937 416.259 82.189 416.151 83.0181C416.093 83.8091 415.849 84.4874 415.421 85.0529C415.041 85.5804 414.432 85.8338 413.591 85.8133L400.24 84.077C398.364 83.8331 396.498 83.6792 394.643 83.6154C392.837 83.5137 390.958 83.8018 389.006 84.4797C387.984 84.8349 387.01 84.6418 386.086 83.9004C385.206 83.1647 384.485 82.2279 383.923 81.0899C383.41 79.914 383.124 78.701 383.065 77.4509C383.006 76.2008 383.332 75.2228 384.045 74.5169C387.009 71.1751 389.907 67.8249 392.74 64.4662C395.616 61.1131 398.343 57.7184 400.92 54.2819C399.307 54.7378 397.795 55.4507 396.382 56.4206C395.018 57.3526 393.643 58.3718 392.257 59.4783C391.654 60.021 391.006 60.2252 390.314 60.0908C389.671 59.9184 389.029 59.5687 388.387 59.0416C387.795 58.4765 387.264 57.7862 386.793 56.9707C386.328 56.1115 385.975 55.2447 385.733 54.3703C385.541 53.458 385.494 52.6309 385.59 51.8891C385.692 51.1037 386.039 50.4833 386.631 50.0278C388.742 48.1281 390.976 46.4664 393.336 45.0428C395.744 43.5812 398.383 42.571 401.251 42.0122C403.032 41.6226 404.625 41.6523 406.031 42.1014C407.443 42.5068 408.64 43.1949 409.623 44.1658C410.649 45.1423 411.449 46.3333 412.02 47.7388C412.592 49.1442 412.931 50.6304 413.038 52.1972C413.072 52.956 412.973 53.7196 412.74 54.4879C412.556 55.2183 412.26 55.9564 411.853 56.702C411.489 57.4534 411.081 58.1991 410.63 58.9391C410.185 59.6354 409.761 60.3346 409.359 61.0366C408.244 62.4446 407.162 63.7682 406.114 65.0073C405.115 66.2085 404.21 67.5329 403.401 68.9806C402.671 69.8175 401.974 70.5699 401.31 71.2379C400.652 71.8623 400.114 72.5909 399.695 73.4238C401.571 73.6678 403.428 73.8872 405.267 74.0818C407.149 74.2822 409.175 74.3905 411.348 74.4067Z" fill="#8337FF" fill-opacity="0.75"/>
</svg>
