<svg xmlns="http://www.w3.org/2000/svg" viewBox="0 0 563.61 98.55"><defs><style>.cls-1{fill:#fff;}</style></defs><g id="Layer_2" data-name="Layer 2"><g id="Layer_1-2" data-name="Layer 1"><path class="cls-1" d="M0,98.55v-72H49.63V37.79h-36V55.93H45.88V66.88H13.63V87.32h36V98.55Z"/><path class="cls-1" d="M46.11,26.55h265.5L359.61,0l12,26.55h192V37.79h-197l-11-25.53-44,25.53H46.11Z"/><path class="cls-1" d="M43.83,87.31h255l48-26.55,12,26.55,204.76.24v11H353.85L342.85,73l-44,25.53h-255Z"/><path class="cls-1" d="M45.88,55.93l258.87-.32,48-26.55,12,26.55H563.61V66.85H359.75l-11-25.54-44,25.54-258.87,0Z"/></g></g></svg>