<svg width="854" height="698" viewBox="0 0 854 698" fill="none" xmlns="http://www.w3.org/2000/svg">
<path d="M67.4393 671.773L76.5844 709.381L90.0842 767.066C90.7382 769.861 91.8335 772.533 93.329 774.983L126.656 829.573C128.119 831.969 129.946 834.122 132.073 835.955L208.739 902.039C211.721 904.609 215.229 906.497 219.017 907.568L372.517 950.998C377.52 952.414 382.826 952.354 387.796 950.828L494.191 918.144C497.108 917.248 499.851 915.864 502.305 914.052L622.329 825.392C625.059 823.375 627.385 820.862 629.183 817.983L715.117 680.477C716.885 677.647 718.114 674.515 718.74 671.238L738.189 569.513C739.99 560.093 736.659 550.424 729.438 544.113L635.693 462.177C629.826 457.05 626.461 449.639 626.461 441.848V369.235C626.461 354.782 638.178 343.065 652.631 343.065C657.747 343.065 662.751 341.565 667.024 338.751L693.261 321.472C696.558 319.301 699.271 316.377 701.798 313.345C713.722 299.04 736.208 285.368 728.5 248.614C724.425 229.184 718.308 124.133 726.457 106.029C732.541 92.5107 737.819 79.4422 741.097 68.6472C749.483 41.0329 741.005 22.9929 733.084 14.5273C730.351 11.607 726.445 10.2836 722.485 9.72628L667.118 1.935C662.755 1.32101 658.308 1.78417 654.165 3.28407L402.272 94.4765C399.325 95.5434 396.215 96.089 393.081 96.089H333.792C331.14 96.089 328.502 96.4798 325.964 97.2488L18.2754 190.465C13.9655 191.77 9.94119 194.099 7.75694 198.038C4.45318 203.994 1 213.778 1 226.916C1 239.17 10.1881 244.925 19.624 247.282C27.1218 249.155 33.7532 255.13 33.7532 262.858C33.7532 266.779 35.4666 270.505 38.4439 273.058L87.6606 315.252C89.9189 317.188 91.8419 319.484 93.3515 322.047L111.177 352.312C113.282 355.885 114.535 359.895 114.84 364.03L128.104 543.991C128.593 550.631 126.612 557.217 122.54 562.485L80.0693 617.441C77.7713 620.415 76.1194 623.835 75.2192 627.484L67.461 658.926C66.4201 663.144 66.4127 667.551 67.4393 671.773Z" stroke="#1A1B1F" stroke-width="2"/>
<path d="M175.876 705.606L185.021 743.214L198.521 800.899C199.175 803.694 200.27 806.366 201.766 808.816L235.093 863.406C236.555 865.802 238.383 867.955 240.509 869.788L317.176 935.872C320.158 938.443 323.666 940.33 327.454 941.401L480.954 984.831C485.957 986.247 491.262 986.188 496.233 984.661L602.628 951.977C605.544 951.081 608.288 949.697 610.741 947.885L730.766 859.225C733.496 857.208 735.821 854.695 737.62 851.816L823.554 714.31C825.322 711.48 826.55 708.348 827.177 705.071L846.626 603.346C848.427 593.926 845.096 584.257 837.875 577.946L744.129 496.01C738.263 490.883 734.898 483.472 734.898 475.681V403.068C734.898 388.615 746.614 376.898 761.067 376.898C766.184 376.898 771.188 375.398 775.461 372.584L801.698 355.305C804.994 353.134 807.707 350.21 810.235 347.178C822.159 332.873 844.645 319.201 836.937 282.447C832.861 263.017 826.744 157.966 834.893 139.862C840.978 126.344 846.256 113.275 849.534 102.48C857.92 74.8659 849.442 56.8259 841.52 48.3603C838.787 45.44 834.882 44.1166 830.922 43.5593L775.555 35.768C771.192 35.154 766.745 35.6172 762.601 37.1171L510.709 128.31C507.762 129.376 504.652 129.922 501.518 129.922H442.229C439.577 129.922 436.939 130.313 434.4 131.082L126.712 224.298C122.402 225.603 118.378 227.932 116.193 231.871C112.89 237.827 109.437 247.611 109.437 260.749C109.437 273.003 118.625 278.758 128.061 281.115C135.558 282.988 142.19 288.963 142.19 296.691C142.19 300.612 143.903 304.338 146.88 306.891L196.097 349.085C198.355 351.021 200.278 353.317 201.788 355.88L219.614 386.145C221.718 389.718 222.972 393.728 223.276 397.863L236.54 577.824C237.029 584.464 235.048 591.05 230.977 596.318L188.506 651.274C186.208 654.248 184.556 657.668 183.656 661.317L175.898 692.759C174.857 696.977 174.849 701.384 175.876 705.606Z" stroke="#1A1B1F" stroke-width="2"/>
<path d="M160.385 700.773L169.53 738.381L183.029 796.066C183.683 798.861 184.779 801.533 186.274 803.983L219.601 858.573C221.064 860.969 222.892 863.122 225.018 864.955L301.685 931.039C304.666 933.609 308.174 935.497 311.962 936.568L465.462 979.998C470.466 981.414 475.771 981.354 480.742 979.828L587.137 947.144C590.053 946.248 592.796 944.864 595.25 943.052L715.274 854.392C718.005 852.375 720.33 849.862 722.129 846.983L808.062 709.477C809.83 706.647 811.059 703.515 811.685 700.238L831.135 598.513C832.936 589.093 829.605 579.424 822.383 573.113L728.638 491.177C722.772 486.05 719.406 478.639 719.406 470.848V398.235C719.406 383.782 731.123 372.065 745.576 372.065C750.692 372.065 755.697 370.565 759.97 367.751L786.206 350.472C789.503 348.301 792.216 345.377 794.743 342.345C806.667 328.04 829.154 314.368 821.445 277.614C817.37 258.184 811.253 153.133 819.402 135.029C825.487 121.511 830.764 108.442 834.043 97.6472C842.429 70.0329 833.951 51.9929 826.029 43.5273C823.296 40.607 819.391 39.2836 815.43 38.7263L760.064 30.935C755.7 30.321 751.253 30.7842 747.11 32.2841L495.218 123.477C492.271 124.543 489.161 125.089 486.027 125.089H426.738C424.085 125.089 421.448 125.48 418.909 126.249L111.221 219.465C106.911 220.77 102.887 223.099 100.702 227.038C97.3985 232.994 93.9453 242.778 93.9453 255.916C93.9453 268.17 103.133 273.925 112.569 276.282C120.067 278.155 126.699 284.13 126.699 291.858C126.699 295.779 128.412 299.505 131.389 302.058L180.606 344.252C182.864 346.188 184.787 348.484 186.297 351.047L204.123 381.312C206.227 384.885 207.48 388.895 207.785 393.03L221.049 572.991C221.538 579.631 219.557 586.217 215.486 591.485L173.015 646.441C170.717 649.415 169.065 652.835 168.164 656.484L160.406 687.926C159.365 692.144 159.358 696.551 160.385 700.773Z" stroke="#1A1B1F" stroke-width="2"/>
<path d="M144.894 695.94L154.039 733.548L167.539 791.233C168.193 794.028 169.288 796.7 170.784 799.15L204.111 853.74C205.573 856.136 207.401 858.289 209.527 860.122L286.194 926.206C289.176 928.776 292.684 930.664 296.472 931.735L449.972 975.165C454.975 976.581 460.28 976.521 465.251 974.995L571.646 942.311C574.562 941.415 577.306 940.031 579.76 938.219L699.784 849.559C702.514 847.542 704.839 845.029 706.638 842.15L792.572 704.644C794.34 701.814 795.568 698.682 796.195 695.405L815.644 593.68C817.445 584.26 814.114 574.591 806.893 568.28L713.147 486.344C707.281 481.217 703.916 473.806 703.916 466.015V393.402C703.916 378.949 715.632 367.232 730.085 367.232C735.202 367.232 740.206 365.732 744.479 362.918L770.716 345.639C774.012 343.468 776.725 340.544 779.253 337.512C791.177 323.207 813.663 309.535 805.955 272.781C801.879 253.351 795.762 148.3 803.911 130.196C809.996 116.678 815.274 103.609 818.552 92.8142C826.938 65.1999 818.46 47.1599 810.538 38.6943C807.805 35.774 803.9 34.4506 799.94 33.8933L744.573 26.102C740.21 25.488 735.763 25.9512 731.62 27.4511L479.727 118.644C476.78 119.71 473.67 120.256 470.536 120.256H411.247C408.595 120.256 405.957 120.647 403.418 121.416L95.73 214.632C91.4201 215.937 87.3958 218.266 85.2115 222.205C81.9078 228.161 78.4546 237.945 78.4546 251.083C78.4546 263.337 87.6426 269.092 97.0786 271.449C104.576 273.322 111.208 279.297 111.208 287.025C111.208 290.946 112.921 294.672 115.898 297.225L165.115 339.419C167.374 341.355 169.296 343.651 170.806 346.214L188.632 376.479C190.737 380.052 191.99 384.062 192.295 388.197L205.558 568.158C206.048 574.798 204.066 581.384 199.995 586.652L157.524 641.608C155.226 644.582 153.574 648.002 152.674 651.651L144.916 683.093C143.875 687.311 143.867 691.718 144.894 695.94Z" stroke="#1A1B1F" stroke-width="2"/>
<path d="M129.403 691.106L138.548 728.714L152.048 786.399C152.702 789.194 153.797 791.866 155.293 794.316L188.62 848.906C190.083 851.302 191.91 853.455 194.037 855.288L270.703 921.372C273.685 923.943 277.193 925.83 280.981 926.901L434.481 970.331C439.484 971.747 444.79 971.688 449.76 970.161L556.155 937.477C559.071 936.581 561.815 935.197 564.269 933.385L684.293 844.725C687.023 842.708 689.349 840.195 691.147 837.316L777.081 699.81C778.849 696.98 780.077 693.848 780.704 690.571L800.153 588.846C801.954 579.426 798.623 569.757 791.402 563.446L697.657 481.51C691.79 476.383 688.425 468.972 688.425 461.181V388.568C688.425 374.115 700.141 362.398 714.595 362.398C719.711 362.398 724.715 360.898 728.988 358.084L755.225 340.805C758.522 338.634 761.235 335.71 763.762 332.678C775.686 318.373 798.172 304.701 790.464 267.947C786.389 248.517 780.272 143.466 788.42 125.362C794.505 111.844 799.783 98.7752 803.061 87.9802C811.447 60.3659 802.969 42.3259 795.047 33.8603C792.315 30.94 788.409 29.6166 784.449 29.0593L729.082 21.268C724.719 20.654 720.272 21.1172 716.129 22.6171L464.236 113.81C461.289 114.876 458.179 115.422 455.045 115.422H395.756C393.104 115.422 390.466 115.813 387.928 116.582L80.2393 209.798C75.9294 211.103 71.9051 213.432 69.7208 217.371C66.417 223.327 62.9639 233.111 62.9639 246.249C62.9639 258.503 72.1519 264.258 81.5879 266.615C89.0857 268.488 95.7171 274.463 95.7171 282.191C95.7171 286.112 97.4305 289.838 100.408 292.391L149.624 334.585C151.883 336.521 153.806 338.817 155.315 341.38L173.141 371.645C175.246 375.218 176.499 379.228 176.804 383.363L190.067 563.324C190.557 569.964 188.576 576.55 184.504 581.818L142.033 636.774C139.735 639.748 138.083 643.168 137.183 646.817L129.425 678.259C128.384 682.477 128.377 686.884 129.403 691.106Z" stroke="#1A1B1F" stroke-width="2"/>
<path d="M113.912 686.273L123.057 723.881L136.557 781.566C137.211 784.361 138.306 787.033 139.802 789.483L173.129 844.073C174.591 846.469 176.419 848.622 178.545 850.455L255.212 916.539C258.194 919.109 261.702 920.997 265.49 922.068L418.99 965.498C423.993 966.914 429.298 966.854 434.269 965.328L540.664 932.644C543.58 931.748 546.324 930.364 548.778 928.552L668.802 839.892C671.532 837.875 673.857 835.362 675.656 832.483L761.59 694.977C763.358 692.147 764.586 689.015 765.213 685.738L784.662 584.013C786.463 574.593 783.132 564.924 775.911 558.613L682.165 476.677C676.299 471.55 672.934 464.139 672.934 456.348V383.735C672.934 369.282 684.65 357.565 699.103 357.565C704.22 357.565 709.224 356.065 713.497 353.251L739.734 335.972C743.03 333.801 745.743 330.877 748.271 327.845C760.195 313.54 782.681 299.868 774.973 263.114C770.897 243.684 764.781 138.633 772.929 120.529C779.014 107.011 784.292 93.9422 787.57 83.1472C795.956 55.5329 787.478 37.4929 779.556 29.0273C776.824 26.107 772.918 24.7836 768.958 24.2263L713.591 16.435C709.228 15.821 704.781 16.2842 700.638 17.7841L448.745 108.977C445.798 110.043 442.688 110.589 439.554 110.589H380.265C377.613 110.589 374.975 110.98 372.437 111.749L64.7481 204.965C60.4382 206.27 56.4138 208.599 54.2296 212.538C50.9258 218.494 47.4727 228.278 47.4727 241.416C47.4727 253.67 56.6607 259.425 66.0967 261.782C73.5945 263.655 80.2259 269.63 80.2259 277.358C80.2259 281.279 81.9393 285.005 84.9165 287.558L134.133 329.752C136.392 331.688 138.315 333.984 139.824 336.547L157.65 366.812C159.755 370.385 161.008 374.395 161.313 378.53L174.576 558.491C175.066 565.131 173.084 571.717 169.013 576.985L126.542 631.941C124.244 634.915 122.592 638.335 121.692 641.984L113.934 673.426C112.893 677.644 112.885 682.051 113.912 686.273Z" stroke="#1A1B1F" stroke-width="2"/>
<path d="M98.4213 681.44L107.566 719.048L121.066 776.733C121.72 779.528 122.815 782.2 124.311 784.65L157.638 839.24C159.101 841.636 160.928 843.789 163.055 845.622L239.721 911.706C242.703 914.276 246.211 916.164 249.999 917.235L403.499 960.665C408.502 962.081 413.808 962.021 418.778 960.495L525.173 927.811C528.09 926.915 530.833 925.531 533.287 923.719L653.311 835.059C656.041 833.042 658.367 830.529 660.165 827.65L746.099 690.144C747.867 687.314 749.096 684.182 749.722 680.905L769.171 579.18C770.972 569.76 767.641 560.091 760.42 553.78L666.675 471.844C660.808 466.717 657.443 459.306 657.443 451.515V378.902C657.443 364.449 669.16 352.732 683.613 352.732C688.729 352.732 693.733 351.232 698.006 348.418L724.243 331.139C727.54 328.968 730.253 326.044 732.78 323.012C744.704 308.707 767.19 295.035 759.482 258.281C755.407 238.851 749.29 133.8 757.438 115.696C763.523 102.178 768.801 89.1092 772.079 78.3142C780.465 50.6999 771.987 32.6599 764.066 24.1943C761.333 21.274 757.427 19.9506 753.467 19.3933L698.1 11.602C693.737 10.988 689.29 11.4512 685.147 12.9511L433.254 104.144C430.307 105.21 427.197 105.756 424.063 105.756H364.774C362.122 105.756 359.484 106.147 356.946 106.916L49.2574 200.132C44.9475 201.437 40.9231 203.766 38.7389 207.705C35.4351 213.661 31.9819 223.445 31.9819 236.583C31.9819 248.837 41.17 254.592 50.6059 256.949C58.1038 258.822 64.7352 264.797 64.7352 272.525C64.7352 276.446 66.4486 280.172 69.4258 282.725L118.643 324.919C120.901 326.855 122.824 329.151 124.333 331.714L142.159 361.979C144.264 365.552 145.517 369.562 145.822 373.697L159.085 553.658C159.575 560.298 157.594 566.884 153.522 572.152L111.051 627.108C108.753 630.082 107.101 633.502 106.201 637.151L98.443 668.593C97.4021 672.811 97.3946 677.218 98.4213 681.44Z" stroke="#1A1B1F" stroke-width="2"/>
<path d="M82.9301 676.606L92.0751 714.214L105.575 771.899C106.229 774.694 107.324 777.366 108.82 779.816L142.147 834.406C143.61 836.802 145.437 838.955 147.563 840.788L224.23 906.872C227.212 909.443 230.72 911.33 234.508 912.401L388.008 955.831C393.011 957.247 398.317 957.188 403.287 955.661L509.682 922.977C512.598 922.081 515.342 920.697 517.796 918.885L637.82 830.225C640.55 828.208 642.875 825.695 644.674 822.816L730.608 685.31C732.376 682.48 733.604 679.348 734.231 676.071L753.68 574.346C755.481 564.926 752.15 555.257 744.929 548.946L651.183 467.01C645.317 461.883 641.952 454.472 641.952 446.681V374.068C641.952 359.615 653.668 347.898 668.121 347.898C673.238 347.898 678.242 346.398 682.515 343.584L708.752 326.305C712.048 324.134 714.761 321.21 717.289 318.178C729.213 303.873 751.699 290.201 743.991 253.447C739.915 234.017 733.799 128.966 741.947 110.862C748.032 97.3437 753.31 84.2752 756.588 73.4802C764.974 45.8659 756.496 27.8259 748.574 19.3603C745.842 16.44 741.936 15.1166 737.976 14.5593L682.609 6.76801C678.246 6.15401 673.799 6.61717 669.656 8.11708L417.763 99.3095C414.816 100.376 411.706 100.922 408.572 100.922H349.283C346.631 100.922 343.993 101.313 341.455 102.082L33.7661 195.298C29.4562 196.603 25.4319 198.932 23.2477 202.871C19.9439 208.827 16.4907 218.611 16.4907 231.749C16.4907 244.003 25.6788 249.758 35.1147 252.115C42.6126 253.988 49.244 259.963 49.244 267.691C49.244 271.612 50.9574 275.338 53.9346 277.891L103.151 320.085C105.41 322.021 107.333 324.317 108.842 326.88L126.668 357.145C128.773 360.718 130.026 364.728 130.331 368.863L143.594 548.824C144.084 555.464 142.102 562.05 138.031 567.318L95.56 622.274C93.2621 625.248 91.6101 628.668 90.7099 632.317L82.9517 663.759C81.9109 667.977 81.9034 672.384 82.9301 676.606Z" stroke="#1A1B1F" stroke-width="2"/>
</svg>
