<svg width="717" height="495" viewBox="0 0 717 495" fill="none" xmlns="http://www.w3.org/2000/svg">
<path d="M148.05 585.316L155.431 615.247L166.578 662.22C167.247 665.04 168.366 667.733 169.891 670.198L197.069 714.098C198.549 716.49 200.395 718.636 202.538 720.458L265.616 774.076C268.593 776.606 272.083 778.461 275.846 779.511L402.644 814.889C407.586 816.268 412.818 816.21 417.728 814.723L505.21 788.221C508.106 787.343 510.834 785.986 513.279 784.204L612.732 711.757C615.478 709.756 617.822 707.256 619.641 704.386L690.804 592.09C692.608 589.244 693.863 586.085 694.504 582.777L710.111 502.276C711.954 492.77 708.566 483.006 701.233 476.685L626.26 412.065C620.31 406.936 616.888 399.469 616.888 391.613V334.109C616.888 321.947 626.747 312.088 638.909 312.088C643.166 312.088 647.332 310.854 650.903 308.535L672.119 294.756C675.431 292.605 678.167 289.694 680.771 286.726C690.921 275.156 708.849 263.683 702.519 233.922C699.086 217.776 693.975 130.888 700.827 115.871C705.924 104.701 710.344 93.9043 713.091 84.9839C719.904 62.8615 713.455 48.1641 707.005 40.8915C704.378 37.9298 700.487 36.6402 696.566 36.096L651.988 29.9098C647.681 29.3121 643.293 29.7635 639.198 31.2255L429.414 106.122C426.5 107.163 423.429 107.694 420.335 107.694H371.87C369.253 107.694 366.649 108.075 364.141 108.824L107.518 185.493C103.231 186.774 99.2079 189.075 97.141 193.044C94.5412 198.036 92 205.783 92 215.965C92 226.188 99.8358 230.946 107.821 232.866C114.023 234.358 119.487 239.296 119.487 245.675C119.487 248.94 120.925 252.039 123.418 254.147L164.149 288.583C166.426 290.508 168.368 292.797 169.897 295.357L183.876 318.762C186.026 322.362 187.309 326.413 187.621 330.594L198.524 476.474C199.025 483.186 197.002 489.843 192.851 495.14L158.976 538.366C156.639 541.349 154.955 544.79 154.035 548.466L148.072 572.298C147.003 576.571 146.996 581.04 148.05 585.316Z" stroke="white" stroke-width="2"/>
<path d="M135.05 581.316L142.431 611.247L153.578 658.22C154.247 661.04 155.366 663.733 156.891 666.198L184.069 710.098C185.549 712.49 187.395 714.636 189.538 716.458L252.616 770.076C255.593 772.606 259.083 774.461 262.846 775.511L389.644 810.889C394.586 812.268 399.818 812.21 404.728 810.723L492.21 784.221C495.106 783.343 497.834 781.986 500.279 780.204L599.732 707.757C602.478 705.756 604.822 703.256 606.641 700.386L677.804 588.09C679.608 585.244 680.863 582.085 681.504 578.777L697.111 498.276C698.954 488.77 695.566 479.006 688.233 472.685L613.26 408.065C607.31 402.936 603.888 395.469 603.888 387.613V330.109C603.888 317.947 613.747 308.088 625.909 308.088C630.166 308.088 634.332 306.854 637.903 304.535L659.119 290.756C662.431 288.605 665.167 285.694 667.771 282.726C677.921 271.156 695.849 259.683 689.519 229.922C686.086 213.776 680.975 126.888 687.827 111.871C692.924 100.701 697.344 89.9043 700.091 80.9839C706.904 58.8615 700.455 44.1641 694.005 36.8915C691.378 33.9298 687.487 32.6402 683.566 32.096L638.988 25.9098C634.681 25.3121 630.293 25.7635 626.198 27.2255L416.414 102.122C413.5 103.163 410.429 103.694 407.335 103.694H358.87C356.253 103.694 353.649 104.075 351.141 104.824L94.5182 181.493C90.2307 182.774 86.2079 185.075 84.141 189.044C81.5412 194.036 79 201.783 79 211.965C79 222.188 86.8358 226.946 94.8214 228.866C101.023 230.358 106.487 235.296 106.487 241.675C106.487 244.94 107.925 248.039 110.418 250.147L151.149 284.583C153.426 286.508 155.368 288.797 156.897 291.357L170.876 314.762C173.026 318.362 174.309 322.413 174.621 326.594L185.524 472.474C186.025 479.186 184.002 485.843 179.851 491.14L145.976 534.366C143.639 537.349 141.955 540.79 141.035 544.466L135.072 568.298C134.003 572.571 133.996 577.04 135.05 581.316Z" stroke="white" stroke-width="2"/>
<path d="M122.05 577.316L129.431 607.247L140.578 654.22C141.247 657.04 142.366 659.733 143.891 662.198L171.069 706.098C172.549 708.49 174.395 710.636 176.538 712.458L239.616 766.076C242.593 768.606 246.083 770.461 249.846 771.511L376.644 806.889C381.586 808.268 386.818 808.21 391.728 806.723L479.21 780.221C482.106 779.343 484.834 777.986 487.279 776.204L586.732 703.757C589.478 701.756 591.822 699.256 593.641 696.386L664.804 584.09C666.608 581.244 667.863 578.085 668.504 574.777L684.111 494.276C685.954 484.77 682.566 475.006 675.233 468.685L600.26 404.065C594.31 398.936 590.888 391.469 590.888 383.613V326.109C590.888 313.947 600.747 304.088 612.909 304.088C617.166 304.088 621.332 302.854 624.903 300.535L646.119 286.756C649.431 284.605 652.167 281.694 654.771 278.726C664.921 267.156 682.849 255.683 676.519 225.922C673.086 209.776 667.975 122.888 674.827 107.871C679.924 96.7005 684.344 85.9043 687.091 76.9839C693.904 54.8615 687.455 40.1641 681.005 32.8915C678.378 29.9298 674.487 28.6402 670.566 28.096L625.988 21.9098C621.681 21.3121 617.293 21.7635 613.198 23.2255L403.414 98.1224C400.5 99.1626 397.429 99.6944 394.335 99.6944H345.87C343.253 99.6944 340.649 100.075 338.141 100.824L81.5182 177.493C77.2307 178.774 73.2079 181.075 71.141 185.044C68.5412 190.036 66 197.783 66 207.965C66 218.188 73.8358 222.946 81.8214 224.866C88.0228 226.358 93.4866 231.296 93.4866 237.675C93.4866 240.94 94.9248 244.039 97.4181 246.147L138.149 280.583C140.426 282.508 142.368 284.797 143.897 287.357L157.876 310.762C160.026 314.362 161.309 318.413 161.621 322.594L172.524 468.474C173.025 475.186 171.002 481.843 166.851 487.14L132.976 530.366C130.639 533.349 128.955 536.79 128.035 540.466L122.072 564.298C121.003 568.571 120.996 573.04 122.05 577.316Z" stroke="white" stroke-width="2"/>
<path d="M109.05 573.316L116.431 603.247L127.578 650.22C128.247 653.04 129.366 655.733 130.891 658.198L158.069 702.098C159.549 704.49 161.395 706.636 163.538 708.458L226.616 762.076C229.593 764.606 233.083 766.461 236.846 767.511L363.644 802.889C368.586 804.268 373.818 804.21 378.728 802.723L466.21 776.221C469.106 775.343 471.834 773.986 474.279 772.204L573.732 699.757C576.478 697.756 578.822 695.256 580.641 692.386L651.804 580.09C653.608 577.244 654.863 574.085 655.504 570.777L671.111 490.276C672.954 480.77 669.566 471.006 662.233 464.685L587.26 400.065C581.31 394.936 577.888 387.469 577.888 379.613V322.109C577.888 309.947 587.747 300.088 599.909 300.088C604.166 300.088 608.332 298.854 611.903 296.535L633.119 282.756C636.431 280.605 639.167 277.694 641.771 274.726C651.921 263.156 669.849 251.683 663.519 221.922C660.086 205.776 654.975 118.888 661.827 103.871C666.924 92.7005 671.344 81.9043 674.091 72.9839C680.904 50.8615 674.455 36.1641 668.005 28.8915C665.378 25.9298 661.487 24.6402 657.566 24.096L612.988 17.9098C608.681 17.3121 604.293 17.7635 600.198 19.2255L390.414 94.1224C387.5 95.1626 384.429 95.6944 381.335 95.6944H332.87C330.253 95.6944 327.649 96.075 325.141 96.8243L68.5182 173.493C64.2307 174.774 60.2079 177.075 58.141 181.044C55.5412 186.036 53 193.783 53 203.965C53 214.188 60.8358 218.946 68.8214 220.866C75.0228 222.358 80.4866 227.296 80.4866 233.675C80.4866 236.94 81.9248 240.039 84.4181 242.147L125.149 276.583C127.426 278.508 129.368 280.797 130.897 283.357L144.876 306.762C147.026 310.362 148.309 314.413 148.621 318.594L159.524 464.474C160.025 471.186 158.002 477.843 153.851 483.14L119.976 526.366C117.639 529.349 115.955 532.79 115.035 536.466L109.072 560.298C108.003 564.571 107.996 569.04 109.05 573.316Z" stroke="white" stroke-width="2"/>
<path d="M96.0502 569.316L103.431 599.247L114.578 646.22C115.247 649.04 116.366 651.733 117.891 654.198L145.069 698.098C146.549 700.49 148.395 702.636 150.538 704.458L213.616 758.076C216.593 760.606 220.083 762.461 223.846 763.511L350.644 798.889C355.586 800.268 360.818 800.21 365.728 798.723L453.21 772.221C456.106 771.343 458.834 769.986 461.279 768.204L560.732 695.757C563.478 693.756 565.822 691.256 567.641 688.386L638.804 576.09C640.608 573.244 641.863 570.085 642.504 566.777L658.111 486.276C659.954 476.77 656.566 467.006 649.233 460.685L574.26 396.065C568.31 390.936 564.888 383.469 564.888 375.613V318.109C564.888 305.947 574.747 296.088 586.909 296.088C591.166 296.088 595.332 294.854 598.903 292.535L620.119 278.756C623.431 276.605 626.167 273.694 628.771 270.726C638.921 259.156 656.849 247.683 650.519 217.922C647.086 201.776 641.975 114.888 648.827 99.8705C653.924 88.7005 658.344 77.9043 661.091 68.9839C667.904 46.8615 661.455 32.1641 655.005 24.8915C652.378 21.9298 648.487 20.6402 644.566 20.096L599.988 13.9098C595.681 13.3121 591.293 13.7635 587.198 15.2255L377.414 90.1224C374.5 91.1626 371.429 91.6944 368.335 91.6944H319.87C317.253 91.6944 314.649 92.075 312.141 92.8243L55.5182 169.493C51.2307 170.774 47.2079 173.075 45.141 177.044C42.5412 182.036 40 189.783 40 199.965C40 210.188 47.8358 214.946 55.8214 216.866C62.0228 218.358 67.4866 223.296 67.4866 229.675C67.4866 232.94 68.9248 236.039 71.4181 238.147L112.149 272.583C114.426 274.508 116.368 276.797 117.897 279.357L131.876 302.762C134.026 306.362 135.309 310.413 135.621 314.594L146.524 460.474C147.025 467.186 145.002 473.843 140.851 479.14L106.976 522.366C104.639 525.349 102.955 528.79 102.035 532.466L96.0724 556.298C95.0034 560.571 94.9958 565.04 96.0502 569.316Z" stroke="white" stroke-width="2"/>
<path d="M83.0502 565.316L90.4306 595.247L101.578 642.22C102.247 645.04 103.366 647.733 104.891 650.198L132.069 694.098C133.549 696.49 135.395 698.636 137.538 700.458L200.616 754.076C203.593 756.606 207.083 758.461 210.846 759.511L337.644 794.889C342.586 796.268 347.818 796.21 352.728 794.723L440.21 768.221C443.106 767.343 445.834 765.986 448.279 764.204L547.732 691.757C550.478 689.756 552.822 687.256 554.641 684.386L625.804 572.09C627.608 569.244 628.863 566.085 629.504 562.777L645.111 482.276C646.954 472.77 643.566 463.006 636.233 456.685L561.26 392.065C555.31 386.936 551.888 379.469 551.888 371.613V314.109C551.888 301.947 561.747 292.088 573.909 292.088C578.166 292.088 582.332 290.854 585.903 288.535L607.119 274.756C610.431 272.605 613.167 269.694 615.771 266.726C625.921 255.156 643.849 243.683 637.519 213.922C634.086 197.776 628.975 110.888 635.827 95.8705C640.924 84.7005 645.344 73.9043 648.091 64.9839C654.904 42.8615 648.455 28.1641 642.005 20.8915C639.378 17.9298 635.487 16.6402 631.566 16.096L586.988 9.90981C582.681 9.31212 578.293 9.76347 574.198 11.2255L364.414 86.1224C361.5 87.1626 358.429 87.6944 355.335 87.6944H306.87C304.253 87.6944 301.649 88.075 299.141 88.8243L42.5182 165.493C38.2307 166.774 34.2079 169.075 32.141 173.044C29.5412 178.036 27 185.783 27 195.965C27 206.188 34.8358 210.946 42.8214 212.866C49.0228 214.358 54.4866 219.296 54.4866 225.675C54.4866 228.94 55.9248 232.039 58.4181 234.147L99.1491 268.583C101.426 270.508 103.368 272.797 104.897 275.357L118.876 298.762C121.026 302.362 122.309 306.413 122.621 310.594L133.524 456.474C134.025 463.186 132.002 469.843 127.851 475.14L93.9762 518.366C91.6387 521.349 89.9552 524.79 89.0354 528.466L83.0724 552.298C82.0034 556.571 81.9958 561.04 83.0502 565.316Z" stroke="white" stroke-width="2"/>
<path d="M70.0502 561.316L77.4306 591.247L88.5778 638.22C89.247 641.04 90.3658 643.733 91.8913 646.198L119.069 690.098C120.549 692.49 122.395 694.636 124.538 696.458L187.616 750.076C190.593 752.606 194.083 754.461 197.846 755.511L324.644 790.889C329.586 792.268 334.818 792.21 339.728 790.723L427.21 764.221C430.106 763.343 432.834 761.986 435.279 760.204L534.732 687.757C537.478 685.756 539.822 683.256 541.641 680.386L612.804 568.09C614.608 565.244 615.863 562.085 616.504 558.777L632.111 478.276C633.954 468.77 630.566 459.006 623.233 452.685L548.26 388.065C542.31 382.936 538.888 375.469 538.888 367.613V310.109C538.888 297.947 548.747 288.088 560.909 288.088C565.166 288.088 569.332 286.854 572.903 284.535L594.119 270.756C597.431 268.605 600.167 265.694 602.771 262.726C612.921 251.156 630.849 239.683 624.519 209.922C621.086 193.776 615.975 106.888 622.827 91.8705C627.924 80.7005 632.344 69.9043 635.091 60.9839C641.904 38.8615 635.455 24.1641 629.005 16.8915C626.378 13.9298 622.487 12.6402 618.566 12.096L573.988 5.90981C569.681 5.31212 565.293 5.76347 561.198 7.22548L351.414 82.1224C348.5 83.1626 345.429 83.6944 342.335 83.6944H293.87C291.253 83.6944 288.649 84.075 286.141 84.8243L29.5182 161.493C25.2307 162.774 21.2079 165.075 19.141 169.044C16.5412 174.036 14 181.783 14 191.965C14 202.188 21.8358 206.946 29.8214 208.866C36.0228 210.358 41.4866 215.296 41.4866 221.675C41.4866 224.94 42.9248 228.039 45.4181 230.147L86.1491 264.583C88.4261 266.508 90.3684 268.797 91.8973 271.357L105.876 294.762C108.026 298.362 109.309 302.413 109.621 306.594L120.524 452.474C121.025 459.186 119.002 465.843 114.851 471.14L80.9762 514.366C78.6387 517.349 76.9552 520.79 76.0354 524.466L70.0724 548.298C69.0034 552.571 68.9958 557.04 70.0502 561.316Z" stroke="white" stroke-width="2"/>
<path d="M57.0502 557.316L64.4306 587.247L75.5778 634.22C76.247 637.04 77.3658 639.733 78.8913 642.198L106.069 686.098C107.549 688.49 109.395 690.636 111.538 692.458L174.616 746.076C177.593 748.606 181.083 750.461 184.846 751.511L311.644 786.889C316.586 788.268 321.818 788.21 326.728 786.723L414.21 760.221C417.106 759.343 419.834 757.986 422.279 756.204L521.732 683.757C524.478 681.756 526.822 679.256 528.641 676.386L599.804 564.09C601.608 561.244 602.863 558.085 603.504 554.777L619.111 474.276C620.954 464.77 617.566 455.006 610.233 448.685L535.26 384.065C529.31 378.936 525.888 371.469 525.888 363.613V306.109C525.888 293.947 535.747 284.088 547.909 284.088C552.166 284.088 556.332 282.854 559.903 280.535L581.119 266.756C584.431 264.605 587.167 261.694 589.771 258.726C599.921 247.156 617.849 235.683 611.519 205.922C608.086 189.776 602.975 102.888 609.827 87.8705C614.924 76.7005 619.344 65.9043 622.091 56.9839C628.904 34.8615 622.455 20.1641 616.005 12.8915C613.378 9.92976 609.487 8.64018 605.566 8.09602L560.988 1.90981C556.681 1.31212 552.293 1.76347 548.198 3.22548L338.414 78.1224C335.5 79.1626 332.429 79.6944 329.335 79.6944H280.87C278.253 79.6944 275.649 80.075 273.141 80.8243L16.5182 157.493C12.2307 158.774 8.20792 161.075 6.14095 165.044C3.54119 170.036 1 177.783 1 187.965C1 198.188 8.83578 202.946 16.8214 204.866C23.0228 206.358 28.4866 211.296 28.4866 217.675C28.4866 220.94 29.9248 224.039 32.4181 226.147L73.1491 260.583C75.4261 262.508 77.3684 264.797 78.8973 267.357L92.8764 290.762C95.0265 294.362 96.3086 298.413 96.6211 302.594L107.524 448.474C108.025 455.186 106.002 461.843 101.851 467.14L67.9762 510.366C65.6387 513.349 63.9552 516.79 63.0354 520.466L57.0724 544.298C56.0034 548.571 55.9958 553.04 57.0502 557.316Z" stroke="white" stroke-width="2"/>
</svg>
