<svg width="325" height="900" viewBox="0 0 325 900" fill="none" xmlns="http://www.w3.org/2000/svg">
<path fill-rule="evenodd" clip-rule="evenodd" d="M325 -59H309.638C303.647 -59 297.724 -57.7179 292.269 -55.2399L249.508 -35.8168C247.553 -34.9286 245.669 -33.8918 243.872 -32.7155L216.076 -14.5172C212.707 -12.3112 209.038 -10.6013 205.182 -9.44002L137.223 11.0264C127.081 14.0809 118.467 20.8548 113.108 29.9911L85.51 77.0372C81.7297 83.4814 79.7369 90.8172 79.7369 98.2883V134.688V192.303L78.3714 208.678C76.9685 225.501 85.7742 241.529 100.726 249.367L123.824 261.475C139.511 269.699 147.107 287.938 141.895 304.866L141.739 305.371C138.253 316.694 140.598 329.008 148.002 338.257C149.917 340.649 151.517 343.277 152.762 346.077L158.664 359.346C160.017 362.388 161.727 365.259 163.758 367.897L168.203 373.671C171.352 377.763 173.72 382.401 175.188 387.351L179.266 401.105C181.561 408.844 181.577 417.081 179.312 424.829L154.911 508.295C152.34 517.093 153.457 526.558 158.007 534.514L158.281 534.994C159.884 537.797 161.924 540.325 164.324 542.484L169.427 547.073C171.706 549.123 174.664 550.258 177.73 550.258C183.549 550.258 188.587 554.299 189.85 559.979L199.195 602.004C199.701 604.276 200.448 606.488 201.424 608.601L204.606 615.492C206.336 619.236 206.447 623.528 204.914 627.358C203.321 631.339 203.507 635.811 205.426 639.646L210.996 650.779L214.031 658.867C216.855 666.393 217.461 674.571 215.775 682.43L214.676 687.555L213.791 690.503C211.956 696.616 211.651 703.087 212.904 709.347C214.07 715.173 216.553 720.655 220.164 725.374L225.392 732.206C228.844 736.716 233.174 740.48 238.122 743.269L251.929 751.052C267.757 759.975 276.053 778.064 272.487 795.881L272.119 797.722C268.018 818.214 249.474 832.573 228.608 831.415L154.567 827.304L83.4171 833.434L59.0139 837.498C50.9255 838.845 43.4083 842.531 37.3896 848.1L22.6774 861.713C16.6852 867.257 12.4388 874.428 10.4575 882.347L1.25568 919.129C0.421692 922.463 0 925.886 0 929.322V954.446C0 958.74 0.658325 963.008 1.95203 967.102L19.6696 1023.17C21.2628 1028.21 23.7939 1032.91 27.1297 1037.01L69.9231 1089.64L111.485 1153.83C119.225 1165.78 132.497 1173 146.739 1173H325V-59Z" fill="white"/>
</svg>
