<svg width="142" height="285" viewBox="0 0 142 285" fill="none" xmlns="http://www.w3.org/2000/svg">
<path d="M90.1334 0.127744L98.2114 5.2504C98.3428 3.80555 98.9995 3.08312 100.182 3.08312H101.167L107.275 11.1612H109.245V10.176C106.618 10.176 105.304 9.51928 105.304 8.20577L106.289 6.23552C111.675 6.89227 114.367 7.8774 114.367 9.1909V10.176L113.382 12.3433C120.738 16.5465 124.416 21.2094 124.416 26.3321C127.043 26.3321 129.735 29.0248 132.494 34.4101C133.939 34.6728 134.661 35.3952 134.661 36.5774C132.691 38.679 131.312 41.3717 130.524 44.6554H134.661V47.6108C134.661 48.2676 134.267 48.5959 133.479 48.5959C133.479 49.6467 135.515 51.3543 139.587 53.7186C136.96 57.1337 135.646 59.1696 135.646 59.8264C138.93 60.2204 140.572 61.2055 140.572 62.7817V63.7669C140.572 65.2117 139.258 65.9341 136.631 65.9341V67.9044C138.602 67.9044 139.587 68.5611 139.587 69.8746L134.661 75.9824V77.9527L137.616 82.0902L135.646 85.0456L137.616 88.001L139.587 87.0158H141.557V89.1831C141.557 90.4966 140.9 91.1534 139.587 91.1534L137.616 90.1682C137.616 90.825 137.288 91.1534 136.631 91.1534L137.616 93.1236V94.1087C137.616 95.5536 136.631 96.276 134.661 96.276L136.631 99.2314C133.873 102.252 132.494 103.96 132.494 104.354L134.661 107.309C131.246 110.33 129.538 112.366 129.538 113.417C130.852 113.549 131.509 114.205 131.509 115.387V116.373C131.509 117.686 130.852 118.343 129.538 118.343C129.538 117.029 128.882 116.373 127.568 116.373C126.123 116.635 125.401 117.292 125.401 118.343V119.525H127.568V121.495C127.568 122.809 126.846 123.465 125.401 123.465L123.431 122.48C121.198 128.26 117.848 132.66 113.382 135.681C113.382 141.592 110.69 144.941 105.304 145.729V150.852H107.275V152.822C107.275 154.136 106.618 154.792 105.304 154.792C105.304 153.479 104.582 152.822 103.137 152.822L97.2263 159.915L95.059 158.93C95.059 160.375 94.7306 161.688 94.0739 162.871L92.1036 161.885C91.1842 161.885 90.1991 162.871 89.1483 164.841L91.1185 166.023C91.1185 166.548 90.0677 169.241 87.9661 174.101C89.411 174.232 90.1334 174.889 90.1334 176.071C88.9512 176.728 87.2437 177.056 85.0107 177.056V178.041C86.981 178.041 87.9661 178.698 87.9661 180.012V181.194H85.9959L84.0256 180.012C84.0256 183.164 83.6972 185.2 83.0405 186.119C83.9599 186.119 84.9451 187.17 85.9959 189.272V191.242L85.0107 193.212C86.3242 193.475 86.981 194.132 86.981 195.183C86.981 196.759 86.6526 198.138 85.9959 199.32C86.6526 200.634 86.981 201.619 86.981 202.276C85.0107 202.932 84.0256 203.655 84.0256 204.443L86.981 209.368V212.521H85.9959C84.6824 212.521 84.0256 211.47 84.0256 209.368C82.1867 212.127 80.4792 213.506 78.903 213.506V214.491H81.0702C82.2524 213.834 83.2375 213.506 84.0256 213.506V216.461C82.9748 216.461 81.5956 217.118 79.8881 218.432H78.903C78.2462 218.432 77.9178 218.103 77.9178 217.446C74.3714 218.891 71.022 220.599 67.8696 222.569C67.8696 221.65 66.8188 220.665 64.7171 219.614C64.7171 222.241 63.732 223.554 61.7618 223.554C57.0332 218.169 54.6689 214.819 54.6689 213.506H52.6986L53.6837 215.476C53.6837 216.79 53.027 217.446 51.7135 217.446C49.6119 213.375 48.5611 211.01 48.5611 210.354L49.5462 208.383C49.5462 207.333 48.2327 205.297 45.6057 202.276V200.305C45.6057 198.992 46.5908 198.335 48.5611 198.335V197.35C45.2773 193.541 43.6355 191.505 43.6355 191.242C43.7668 189.929 44.4236 189.272 45.6057 189.272L47.576 190.257L46.5908 185.134L49.5462 181.194C46.9192 181.194 45.6057 179.486 45.6057 176.071L48.5611 174.101C50.0059 176.203 50.7284 177.844 50.7284 179.027C52.0419 178.37 53.027 178.041 53.6837 178.041L50.7284 174.101C52.0419 172.393 53.6837 168.978 55.654 163.856L54.6689 158.93C61.3677 156.04 64.7171 152.297 64.7171 147.7C67.2128 147.7 70.6279 144.679 74.9625 138.636H75.9476L77.9178 139.622C78.4432 134.63 81.1359 130.624 85.9959 127.603C85.9959 125.501 89.411 122.086 96.2412 117.358C97.1606 114.731 98.1457 113.417 99.1965 113.417L101.167 114.402V112.432C100.51 111.119 100.182 110.068 100.182 109.28C101.495 109.28 103.859 106.259 107.275 100.217H109.245V99.2314C107.931 97.5238 107.275 96.5387 107.275 96.276C108.588 95.4879 109.573 95.0939 110.23 95.0939V91.1534C110.23 89.5772 110.558 88.198 111.215 87.0158C110.558 85.7023 110.23 84.7172 110.23 84.0605C111.675 84.0605 112.397 83.4037 112.397 82.0902V72.83C112.397 72.1733 112.726 71.8449 113.382 71.8449L111.215 67.9044L114.367 59.8264C113.448 59.8264 112.397 58.7756 111.215 56.674L112.397 51.7483C110.69 51.7483 109.311 49.0557 108.26 43.6703L98.2114 32.4399C98.8682 32.4399 99.1965 32.1115 99.1965 31.4547C97.883 31.4547 97.2263 31.1264 97.2263 30.4696L95.059 31.4547L89.1483 28.4994C87.9661 29.1561 86.5869 29.4845 85.0107 29.4845H84.0256C82.3181 28.171 81.3329 27.5142 81.0702 27.5142C81.0702 28.8277 80.3478 29.4845 78.903 29.4845C77.5895 29.4845 76.9327 28.8277 76.9327 27.5142C70.8906 28.6964 65.5052 31.7174 60.7766 36.5774H59.7915L57.8213 35.5923C57.8213 36.9058 56.7705 37.5625 54.6689 37.5625L55.654 39.5328V40.5179H53.6837L51.7135 39.5328C51.7135 42.9479 50.3343 44.6554 47.576 44.6554L48.5611 46.6257V48.5959C45.6714 48.5959 41.6652 54.7037 36.5426 66.9193C37.9874 66.9193 38.9725 68.5611 39.4979 71.8449C38.1844 72.5016 37.1993 72.83 36.5426 72.83V74.0122L38.5128 76.9675C37.3307 77.6243 35.9515 77.9527 34.3753 77.9527V79.9229C36.4769 79.9229 38.1844 81.3021 39.4979 84.0605V87.0158H37.5277V88.001C40.4174 89.4458 42.1249 90.1682 42.6503 90.1682V98.2463C42.6503 98.509 41.9279 99.4941 40.4831 101.202V102.187L43.6355 106.324C43.6355 107.638 42.913 108.295 41.4682 108.295C41.4682 107.375 40.4831 106.39 38.5128 105.339C38.5128 107.966 37.5277 109.28 35.5574 109.28V111.25H36.5426C37.8561 110.593 38.8412 110.265 39.4979 110.265L40.4831 112.432L38.5128 113.417C38.5128 112.76 38.1844 112.432 37.5277 112.432C37.5277 113.746 36.8709 114.402 35.5574 114.402H34.3753C33.7185 114.402 33.3902 114.074 33.3902 113.417C30.8945 114.205 27.8734 115.847 24.327 118.343L20.3865 115.387C19.3357 118.146 18.2849 119.525 17.2341 119.525H15.2638C15.2638 115.453 13.2279 112.366 9.15606 110.265C9.15606 112.366 8.49931 113.417 7.18581 113.417L6.20068 111.25L7.18581 109.28C4.42746 109.28 3.04828 108.623 3.04828 107.309C4.36178 106.653 5.41258 106.324 6.20068 106.324V105.339C2.78558 100.742 1.07803 97.3268 1.07803 95.0939C2.39153 94.4371 3.44233 94.1087 4.23043 94.1087V93.1236C2.78558 91.4161 2.06316 90.4309 2.06316 90.1682C4.29611 88.3293 6.33203 83.2724 8.17094 74.9973C7.51418 74.9973 6.52906 74.6689 5.21556 74.0122C5.21556 75.9824 4.49313 76.9675 3.04828 76.9675C1.73478 76.9675 1.07803 76.3108 1.07803 74.9973V72.83L8.17094 62.7817L10.1412 63.7669C10.1412 62.322 10.4696 61.0085 11.1263 59.8264L9.15606 58.8412C9.15606 60.8115 8.49931 61.7966 7.18581 61.7966H5.21556V60.8115C5.21556 56.7396 6.52906 54.7037 9.15606 54.7037L8.17094 49.5811V46.6257C11.586 44.13 13.9503 41.109 15.2638 37.5625C19.3357 37.5625 21.3716 36.5117 21.3716 34.4101C20.0581 34.4101 19.4014 33.7534 19.4014 32.4399C23.6046 28.368 27.2824 26.3321 30.4348 26.3321C33.0618 26.3321 34.3753 25.347 34.3753 23.3767C32.405 23.3767 31.4199 22.72 31.4199 21.4065L32.405 19.4362C31.7483 18.1227 31.4199 17.0719 31.4199 16.2838L33.3902 15.2987C34.835 15.2987 35.5574 17.0062 35.5574 20.4213H39.4979C40.8114 15.6927 42.1906 13.3284 43.6355 13.3284L45.6057 14.3136V13.3284C44.949 12.1463 44.6206 10.7671 44.6206 9.1909C55.5226 7.0893 61.8931 4.725 63.732 2.098L65.8993 3.08312C66.0307 1.76962 66.6874 1.11287 67.8696 1.11287H69.8398V4.26527H70.8249L73.9773 2.098L76.9327 4.26527C77.1954 2.82042 77.8522 2.098 78.903 2.098H79.8881L83.0405 4.26527L90.1334 0.127744ZM89.1483 3.08312V5.2504H91.1185V3.08312H89.1483ZM126.386 32.4399V33.425H128.553V32.4399H126.386ZM133.479 39.5328H134.661C135.975 39.7955 136.631 40.4522 136.631 41.503C136.631 42.9479 135.975 43.6703 134.661 43.6703L133.479 41.503V39.5328ZM14.2787 44.6554H16.249V42.6852C14.9355 42.8165 14.2787 43.4733 14.2787 44.6554ZM34.3753 66.9193V68.8895H35.5574V66.9193H34.3753ZM137.616 74.0122C138.93 74.1435 139.587 74.8003 139.587 75.9824V76.9675C139.587 78.281 138.93 78.9378 137.616 78.9378C136.303 78.9378 135.646 78.281 135.646 76.9675V75.9824C135.778 74.6689 136.434 74.0122 137.616 74.0122ZM0.0929049 79.9229H3.04828V82.0902C3.04828 83.4037 2.39153 84.0605 1.07803 84.0605L0.0929049 82.0902V79.9229ZM41.4682 100.217H42.6503C43.9638 100.479 44.6206 101.136 44.6206 102.187V103.172H41.4682V100.217ZM138.602 102.187L139.587 104.354C139.587 105.668 138.93 106.324 137.616 106.324C136.303 106.324 135.646 105.668 135.646 104.354L138.602 102.187ZM15.2638 111.25V112.432H17.2341V111.25H15.2638ZM23.3419 112.432V113.417C23.6046 114.731 24.2613 115.387 25.3121 115.387C25.3121 114.731 25.6405 113.746 26.2972 112.432H23.3419ZM85.9959 166.023V167.993C87.3094 167.993 87.9661 167.336 87.9661 166.023H85.9959ZM51.7135 185.134V187.105H52.6986V185.134H51.7135ZM87.9661 204.443L89.1483 206.413L86.981 207.398H85.9959V206.413C86.2586 205.1 86.9153 204.443 87.9661 204.443ZM67.8696 216.461V218.432H69.8398V216.461H67.8696ZM63.732 227.692H66.8844C67.8039 227.692 69.1174 229.334 70.8249 232.617V234.785H68.8547V236.755C69.6428 236.755 72.3355 234.719 76.9327 230.647C77.5895 231.961 77.9178 232.946 77.9178 233.603L76.9327 235.77V236.755H77.9178V234.785H81.0702C82.3837 237.543 83.0405 239.185 83.0405 239.71L87.9661 238.725V240.695L86.981 242.863H87.9661C88.3602 242.863 89.411 242.14 91.1185 240.695C92.432 240.958 93.0888 241.681 93.0888 242.863C93.0888 243.519 90.3961 245.884 85.0107 249.956C86.3242 249.956 86.981 250.284 86.981 250.941L93.0888 247.788L94.0739 249.956C94.0739 251.269 93.4171 251.926 92.1036 251.926L93.0888 253.896V255.866C91.3812 255.866 90.3961 257.574 90.1334 260.989H92.1036V262.959C92.1036 264.01 91.1185 265.061 89.1483 266.112C89.1483 265.324 88.7542 264.93 87.9661 264.93C87.9661 271.366 85.9959 275.438 82.0554 277.145V278.13H78.903C77.5895 278.13 76.9327 277.473 76.9327 276.16C75.3565 276.16 72.9922 278.853 69.8398 284.238C68.5263 284.238 67.8696 283.581 67.8696 282.268C69.1831 280.56 69.8398 279.509 69.8398 279.115V278.13L64.7171 279.115H62.7469C62.7469 277.145 61.105 276.16 57.8213 276.16L60.7766 280.1V282.268H58.8064C56.3107 278.196 53.224 274.781 49.5462 272.022V270.052H50.7284C52.1732 270.052 53.4867 270.381 54.6689 271.037H55.654V270.052C53.6837 270.052 52.6986 269.067 52.6986 267.097H51.7135C48.9551 270.381 47.2476 272.022 46.5908 272.022L45.6057 270.052V268.082L47.576 264.93C46.5252 264.93 45.2117 264.273 43.6355 262.959L40.4831 264.93L39.4979 262.959C42.3876 259.413 44.4236 254.684 45.6057 248.773C44.949 247.46 44.6206 246.475 44.6206 245.818C45.9341 245.818 46.5908 245.161 46.5908 243.848C44.6206 243.848 43.6355 243.125 43.6355 241.681V240.695H44.6206L47.576 242.863C50.9911 240.367 52.6986 238.331 52.6986 236.755C52.0419 235.441 51.7135 234.391 51.7135 233.603L57.8213 230.647C59.1348 234.719 60.4483 236.755 61.7618 236.755H62.7469C62.7469 235.441 63.4036 234.785 64.7171 234.785V231.632C62.7469 231.632 61.7618 230.976 61.7618 229.662C62.0245 228.349 62.6812 227.692 63.732 227.692ZM84.0256 233.603H85.0107C86.3242 233.865 86.981 234.588 86.981 235.77C86.981 237.083 86.3242 237.74 85.0107 237.74H84.0256V233.603ZM45.6057 236.755H46.5908C46.5908 237.806 45.2773 239.119 42.6503 240.695V239.71C42.6503 238.791 43.6355 237.806 45.6057 236.755ZM93.0888 243.848C94.4023 243.979 95.059 244.636 95.059 245.818H93.0888V243.848ZM42.6503 245.818L43.6355 247.788V249.956H42.6503C41.2055 249.956 40.4831 249.233 40.4831 247.788C40.7458 246.475 41.4682 245.818 42.6503 245.818ZM46.5908 254.881C46.5908 256.457 46.2625 257.837 45.6057 259.019H48.5611V256.851C48.5611 255.538 47.9043 254.881 46.5908 254.881ZM73.9773 279.115H74.9625C76.276 279.378 76.9327 280.1 76.9327 281.283V282.268H73.9773V279.115ZM60.7766 282.268H63.732V284.238H60.7766V282.268Z" fill="#8337FF"/>
</svg>
