<svg width="644" height="644" viewBox="0 0 644 644" fill="none" xmlns="http://www.w3.org/2000/svg">
<path d="M10.0045 7.88543C10.7826 8.0116 11.5517 8.18833 12.3068 8.41452C15.2391 9.29803 18.2808 9.76649 21.3433 9.80623C23.4057 9.75408 25.4552 10.1464 27.3523 10.9564C30.7654 12.3194 34.4175 12.9842 38.0924 12.9117C41.6046 12.9712 45.1033 12.4624 48.4527 11.405C50.523 10.7212 52.6965 10.4021 54.8761 10.4618C57.2691 10.4085 59.6611 10.6051 62.0132 11.0484C65.1724 11.656 68.3853 11.9412 71.6023 11.8996C74.7599 11.9306 77.9144 11.6881 81.0301 11.1749C83.4474 10.7567 85.8984 10.5642 88.3514 10.5999C90.7206 10.5657 93.0855 10.8128 95.3964 11.336C98.5925 12.0201 101.855 12.3442 105.124 12.3021C108.639 12.3615 112.14 11.8368 115.484 10.7494C117.537 10.0403 119.701 9.70148 121.873 9.74872C123.988 9.6906 126.095 10.0421 128.077 10.7839C131.442 11.976 134.995 12.5526 138.564 12.4861C141.578 12.5097 144.591 12.3715 147.589 12.0721C150.159 11.8086 152.742 11.6857 155.325 11.704C159.745 11.704 161.99 11.5545 164.166 11.4165C166.341 11.2785 168.114 11.1519 172.074 11.1519C175.315 11.2049 178.553 10.9118 181.732 10.2778C184.068 9.7954 186.45 9.57168 188.835 9.6107C190.941 9.54548 193.039 9.90134 195.005 10.6574C198.389 11.9103 201.975 12.5302 205.584 12.4861C208.892 12.503 212.189 12.1168 215.403 11.336C217.666 10.8025 219.986 10.5551 222.31 10.5999C226.719 10.5999 228.952 10.4618 231.116 10.3238C233.28 10.1858 235.088 10.0708 239.071 10.0708C241.643 10.049 244.214 10.1757 246.772 10.4503C249.777 10.7665 252.798 10.9124 255.82 10.8874C259.953 10.8874 261.967 10.8874 264.085 10.9564C266.203 11.0254 268.333 11.0139 272.569 11.0139C276.989 11.0139 279.234 10.8759 281.398 10.7264C283.562 10.5768 285.37 10.4733 289.33 10.4733C291.887 10.454 294.443 10.5846 296.985 10.8644C299.996 11.2065 303.025 11.3639 306.056 11.336C308.487 11.2993 310.916 11.4996 313.308 11.9341C316.445 12.4978 319.629 12.7635 322.816 12.7277C325.895 12.7515 328.972 12.567 332.026 12.1756C334.528 11.8379 337.052 11.6841 339.577 11.7155C343.56 11.7155 345.494 11.8305 347.543 11.9571C349.592 12.0836 351.94 12.2216 356.326 12.2216C360.367 12.2216 362.324 12.3021 364.384 12.3941C366.445 12.4861 368.736 12.5897 373.075 12.5897C376.237 12.6206 379.395 12.3781 382.515 11.865C384.928 11.4462 387.375 11.2536 389.825 11.29C394.13 11.29 396.329 11.2094 398.447 11.1404C400.565 11.0714 402.51 10.9909 406.574 10.9909C410.637 10.9909 412.514 11.0944 414.574 11.2094C416.635 11.3245 418.949 11.451 423.334 11.451C427.72 11.451 429.85 11.3705 431.968 11.29C434.086 11.2094 436.032 11.1404 440.084 11.1404C443.284 11.1807 446.481 10.9033 449.627 10.3123C452.011 9.87693 454.433 9.68425 456.856 9.73722C460.793 9.73722 462.704 9.88674 464.73 10.0248C466.756 10.1628 469.173 10.3583 473.616 10.3583C478.06 10.3583 480.362 10.1743 482.561 9.99026C484.564 9.82923 486.463 9.66821 490.377 9.66821C492.762 9.62984 495.144 9.85355 497.48 10.3353C500.654 10.9811 503.888 11.2857 507.126 11.244C509.691 11.2181 512.255 11.3487 514.804 11.635C517.821 11.9619 520.853 12.1155 523.887 12.0951C527.016 12.1256 530.142 11.9025 533.234 11.428C535.687 11.0529 538.166 10.8798 540.648 10.9104C543.122 10.8762 545.594 11.0532 548.038 11.4395C551.134 11.9133 554.264 12.1364 557.397 12.1066C560.55 12.1406 563.701 11.9021 566.813 11.3935C569.239 10.986 571.697 10.7973 574.157 10.8299C576.7 10.8056 579.242 10.9477 581.766 11.2555C584.822 11.621 587.898 11.79 590.976 11.7615C595.189 11.7615 597.284 11.7615 599.391 11.7615H607.725C611.996 11.7615 614.171 11.7615 616.266 11.6695C618.361 11.5775 620.376 11.5775 624.497 11.5775C627.8 11.5245 631.065 10.8697 634.132 9.64521C634.466 9.51869 634.88 9.36916 635.214 9.26565C635.428 9.44196 635.632 9.63012 635.824 9.82923V9.82923C635.732 10.0209 635.64 10.205 635.548 10.3813C633.735 13.6795 632.762 17.3729 632.716 21.1355V29.5203C632.716 31.6136 632.716 33.7069 632.716 37.882C632.716 42.0572 632.808 44.4035 632.9 46.5314C632.992 48.6592 633.062 50.58 633.062 54.5826C633.015 57.8876 633.37 61.186 634.121 64.4051C634.661 66.6646 634.913 68.9834 634.869 71.3062C634.91 73.6962 634.69 76.0835 634.213 78.4258C633.583 81.5914 633.286 84.814 633.326 88.0412C633.271 91.4928 633.741 94.9327 634.719 98.2433C635.379 100.356 635.686 102.564 635.629 104.776C635.697 106.861 635.329 108.938 634.546 110.872C633.264 114.274 632.639 117.888 632.705 121.523C632.705 125.779 632.705 127.941 632.797 130.034C632.889 132.128 632.877 134.14 632.877 138.258C632.844 141.388 633.071 144.516 633.556 147.609C633.959 150.088 634.152 152.597 634.132 155.108C634.132 159.042 633.982 160.951 633.833 162.964C633.672 165.149 633.51 167.403 633.51 171.843C633.479 174.989 633.71 178.132 634.201 181.24C634.604 183.669 634.789 186.128 634.754 188.59C634.788 191.062 634.611 193.532 634.224 195.974C633.749 199.068 633.526 202.195 633.556 205.325C633.528 208.4 633.705 211.474 634.086 214.526C634.413 217.031 634.563 219.557 634.535 222.083C634.535 226.062 634.42 227.995 634.293 230.042C634.167 232.089 634.028 234.436 634.028 238.829C633.982 242.122 634.33 245.408 635.064 248.617C635.586 250.88 635.83 253.197 635.79 255.518C635.79 259.797 635.847 261.971 635.905 264.076C635.962 266.181 636.008 268.17 636.008 272.265C636.037 274.639 635.794 277.008 635.283 279.327C634.609 282.514 634.293 285.766 634.339 289.023C634.383 291.375 634.14 293.723 633.614 296.016C632.912 299.219 632.58 302.491 632.624 305.77C632.552 309.499 633.266 313.203 634.719 316.639C635.546 318.481 635.94 320.487 635.87 322.505C635.87 326.496 635.767 328.44 635.652 330.487C635.536 332.534 635.41 334.869 635.41 339.24C635.46 341.48 635.165 343.714 634.535 345.865C633.612 349.158 633.17 352.567 633.223 355.986C633.223 360.426 633.384 362.68 633.545 364.854C633.706 367.028 633.833 368.788 633.833 372.721C633.833 376.851 633.833 378.863 633.764 380.98C633.695 383.096 633.695 385.224 633.695 389.457C633.695 393.689 633.695 395.852 633.764 397.933C633.833 400.015 633.764 402.062 633.764 406.192C633.788 408.736 633.646 411.28 633.338 413.806C632.974 416.836 632.805 419.886 632.831 422.938C632.773 426.449 633.291 429.946 634.362 433.29C635.052 435.349 635.375 437.514 635.318 439.685C635.318 443.917 635.318 446.057 635.318 448.139C635.318 450.22 635.318 452.279 635.318 456.431C635.353 458.889 635.168 461.345 634.765 463.769C634.262 466.876 634.028 470.02 634.063 473.166C634.017 476.415 634.326 479.658 634.984 482.839C635.471 485.165 635.699 487.537 635.663 489.913C635.705 492.236 635.454 494.554 634.915 496.814C634.181 500.032 633.833 503.325 633.879 506.625C633.855 509.625 633.994 512.623 634.293 515.608C634.54 518.184 634.656 520.772 634.639 523.36C634.682 525.683 634.431 528.002 633.89 530.261C633.128 533.482 632.769 536.786 632.82 540.095C632.76 543.644 633.313 547.177 634.454 550.539C635.178 552.559 635.517 554.697 635.456 556.842C635.49 559.246 635.278 561.647 634.823 564.007C634.215 567.16 633.93 570.366 633.971 573.577C633.948 576.604 634.098 579.63 634.42 582.64C634.695 585.192 634.822 587.757 634.8 590.323C634.83 592.802 634.657 595.28 634.282 597.731C633.812 600.821 633.593 603.944 633.626 607.07C633.626 609.692 633.487 611.429 633.372 612.947C632.971 617.053 633.254 621.196 634.213 625.208C634.707 627.533 635.365 629.82 636.181 632.052C636.423 632.73 636.711 633.547 636.849 634.042C636.518 634.485 636.153 634.9 635.755 635.284C635.464 635.581 635.153 635.858 634.823 636.112C634.431 636.02 633.821 635.847 633.349 635.709C630.426 634.742 627.369 634.237 624.29 634.214C622.062 634.265 619.84 633.966 617.705 633.329C614.403 632.373 610.978 631.916 607.541 631.971C603.788 631.897 600.063 632.627 596.616 634.111C594.792 634.947 592.797 635.341 590.791 635.261C586.866 635.261 584.955 635.123 582.929 634.973C580.903 634.824 578.486 634.64 574.042 634.64C569.599 634.64 567.412 634.778 565.259 634.904C563.106 635.031 561.276 635.134 557.293 635.134C554.862 635.171 552.433 634.971 550.041 634.536C546.907 633.973 543.728 633.707 540.544 633.743C536.538 633.743 534.593 633.639 532.486 633.536C530.379 633.432 528.112 633.294 523.737 633.294C520.579 633.259 517.424 633.505 514.309 634.03C511.891 634.437 509.441 634.626 506.988 634.594C504.412 634.618 501.837 634.495 499.275 634.226C496.274 633.91 493.257 633.764 490.239 633.789C487.039 633.752 483.843 634.025 480.696 634.605C478.317 635.05 475.899 635.255 473.478 635.215C469.231 635.215 467.066 635.215 464.983 635.295C462.899 635.376 460.85 635.376 456.729 635.376C454.432 635.421 452.139 635.154 449.914 634.582C446.668 633.765 443.328 633.378 439.98 633.432C435.744 633.432 433.591 633.432 431.508 633.501C429.424 633.57 427.363 633.559 423.219 633.559C419.075 633.559 417.176 633.489 415.081 633.409C412.986 633.328 410.775 633.271 406.47 633.271C402.43 633.271 400.461 633.179 398.412 633.098C396.363 633.018 394.084 632.914 389.756 632.914C386.274 632.861 382.805 633.354 379.476 634.375C377.384 635.05 375.192 635.365 372.995 635.307C370.947 635.365 368.911 634.972 367.032 634.157C363.606 632.779 359.938 632.106 356.246 632.178C352.846 632.126 349.456 632.548 346.173 633.432C343.998 634.046 341.744 634.332 339.485 634.283C335.26 634.283 333.108 634.283 331.036 634.283C328.964 634.283 326.88 634.283 322.736 634.283C318.592 634.283 316.819 634.168 314.77 634.053C312.721 633.938 310.373 633.789 305.975 633.789C303.465 633.82 300.955 633.659 298.47 633.305C295.418 632.888 292.341 632.692 289.261 632.719C284.806 632.719 282.538 632.903 280.351 633.064C278.336 633.225 276.425 633.375 272.512 633.375C269.32 633.333 266.132 633.599 262.992 634.168C260.607 634.602 258.186 634.803 255.762 634.766C253.647 634.824 251.54 634.473 249.558 633.731C246.173 632.519 242.596 631.931 239.002 631.994C235.853 631.965 232.707 632.2 229.597 632.696C227.17 633.098 224.712 633.283 222.253 633.248C217.993 633.248 215.829 633.248 213.734 633.34C211.639 633.432 209.613 633.42 205.492 633.42C202.219 633.375 198.952 633.703 195.753 634.398C193.454 634.919 191.1 635.159 188.743 635.111C184.507 635.111 182.354 635.111 180.27 635.169C178.187 635.226 176.126 635.169 171.994 635.169C169.978 635.238 167.974 634.845 166.134 634.019C162.693 632.545 158.977 631.819 155.233 631.891C151.995 631.852 148.762 632.153 145.586 632.788C143.247 633.27 140.861 633.494 138.472 633.455C136.038 633.488 133.606 633.292 131.209 632.868C128.077 632.322 124.902 632.064 121.723 632.098C117.498 632.098 115.392 632.098 113.285 632.098C111.179 632.098 109.13 632.098 104.962 632.098C101.851 632.07 98.7415 632.278 95.6612 632.719C93.1925 633.089 90.6978 633.258 88.2018 633.225C83.7814 633.225 81.5366 633.375 79.361 633.524C77.1853 633.674 75.401 633.789 71.4526 633.789C67.3085 633.789 65.294 633.789 63.1644 633.789C61.0347 633.789 58.9282 633.731 54.6919 633.731C50.4557 633.731 48.1765 633.812 46.0584 633.881C43.9403 633.95 41.9948 634.03 37.9313 634.03C33.8677 634.03 32.0719 633.892 30.0459 633.754C28.0199 633.616 25.6025 633.432 21.1706 633.432C17.4126 633.514 13.717 634.408 10.3383 636.054C9.73975 636.307 8.97999 636.641 8.47349 636.814L8.22024 636.572C8.07342 636.427 7.93505 636.273 7.80582 636.112C7.94396 635.594 8.27779 634.72 8.54256 634.042C9.97428 630.773 10.7562 627.257 10.8448 623.69C10.8448 619.503 10.8448 617.41 10.8448 615.328V607.127C10.8448 602.929 10.8448 600.836 10.8448 598.731C10.8448 596.626 10.8448 594.568 10.8448 590.392C10.8744 587.279 10.6589 584.167 10.2002 581.087C9.82501 578.629 9.65176 576.144 9.68219 573.657C9.6307 571.414 9.92183 569.176 10.5455 567.021C11.4943 563.72 11.9634 560.299 11.9384 556.865C11.9615 553.821 11.7962 550.779 11.4434 547.755C11.1472 545.225 11.0088 542.678 11.029 540.13C11.029 536.139 11.1441 534.206 11.2593 532.147C11.3744 530.089 11.5125 527.765 11.5125 523.395C11.5125 519.254 11.5125 517.149 11.5125 515.113C11.5125 513.078 11.5701 510.881 11.5701 506.648C11.5701 502.415 11.4895 500.161 11.4204 498.045C11.3513 495.928 11.3629 493.973 11.3629 489.913C11.3995 486.716 11.1258 483.522 10.5455 480.378C10.0948 478.005 9.88654 475.593 9.92393 473.178C9.90116 470.619 10.0357 468.06 10.3268 465.518C10.674 462.502 10.8354 459.467 10.8103 456.431C10.8103 452.279 10.8103 450.197 10.8103 448.116C10.8103 446.034 10.8103 443.906 10.8103 439.696C10.8103 435.487 10.8103 433.6 10.9024 431.484C10.9945 429.368 10.9945 427.217 10.9945 422.961C10.946 420.673 11.2172 418.389 11.8003 416.175C12.6254 412.921 13.0126 409.571 12.9514 406.215C13.0353 402.553 12.3977 398.911 11.0751 395.495C10.2649 393.591 9.87238 391.536 9.92393 389.468C9.89613 386.938 10.0461 384.409 10.3729 381.9C10.7551 378.848 10.932 375.774 10.9024 372.698C10.9024 368.627 10.9715 366.649 11.0405 364.544C11.1096 362.439 11.1787 360.254 11.1787 355.952C11.1988 352.949 11.0644 349.947 10.7758 346.957C10.5174 344.386 10.3982 341.802 10.4189 339.217C10.3974 336.676 10.5436 334.136 10.8564 331.614C11.2259 328.581 11.399 325.526 11.3744 322.47C11.3744 318.031 11.2017 315.765 11.029 313.579C10.8794 311.567 10.7297 309.657 10.7297 305.735C10.7227 303.29 10.9346 300.85 11.3629 298.443C11.8713 295.333 12.1101 292.185 12.0766 289.035C12.0766 284.779 12.0766 282.605 11.973 280.512C11.8694 278.418 11.8809 276.406 11.8809 272.3C11.8612 269.704 11.9726 267.109 12.2147 264.524C12.4982 261.546 12.6288 258.556 12.6061 255.564C12.6613 252.113 12.1916 248.673 11.2132 245.362C10.5522 243.25 10.2449 241.042 10.3038 238.829C10.2583 236.548 10.5335 234.271 11.1211 232.066C11.9553 228.806 12.3426 225.447 12.2723 222.083C12.2516 219.498 12.3707 216.914 12.6291 214.342C12.929 211.354 13.0673 208.351 13.0435 205.348C13.0435 201.092 13.0435 198.941 12.963 196.848C12.8824 194.755 12.8824 192.73 12.8824 188.601C12.9542 185.034 12.393 181.483 11.2247 178.112C10.4973 176.112 10.1536 173.993 10.2117 171.866C10.2117 167.622 10.2117 165.46 10.1426 163.378C10.0736 161.296 10.0621 159.249 10.0621 155.12C10.0365 152.597 10.1904 150.075 10.5225 147.574C10.9143 144.523 11.0989 141.449 11.0751 138.373C11.031 136.019 11.2667 133.667 11.7773 131.368C12.4847 128.17 12.8169 124.901 12.7673 121.626C12.7673 117.543 12.7673 115.553 12.8824 113.449C12.9975 111.344 13.009 109.17 13.009 104.88C13.045 101.665 12.7519 98.4544 12.1341 95.2989C11.657 92.9488 11.4369 90.5539 11.478 88.1563C11.478 83.7971 11.3629 81.6233 11.3629 79.4954C11.3629 77.3676 11.1902 75.4468 11.1902 71.4442C11.2166 68.4128 11.0629 65.3825 10.7297 62.3693C10.4499 59.8219 10.3192 57.2603 10.3383 54.6976C10.3383 50.5225 10.3383 48.4407 10.3383 46.3473C10.3383 44.254 10.3383 42.1492 10.3383 37.9511C10.3383 33.9829 10.4535 32.0506 10.5801 30.0033C10.7067 27.956 10.8448 25.5982 10.8448 21.2045C10.7956 17.827 10.1446 14.4853 8.92243 11.336C8.71523 10.7149 8.43895 9.90975 8.33535 9.44968C8.51209 9.20438 8.71259 8.97708 8.93395 8.77107C9.25232 8.43228 9.61199 8.13474 10.0045 7.88543V7.88543ZM9.91242 0.984375C8.0821 0.984375 6.26329 1.67448 4.04158 3.90582C-1.8753 9.82923 3.91496 12.7967 3.91496 21.1585C3.91496 29.5203 3.40845 29.5318 3.40845 37.905C3.40845 46.2783 3.40845 46.2783 3.40845 54.6516C3.40845 63.0249 4.22576 63.0939 4.22576 71.4097C4.22576 79.7255 4.57111 79.783 4.57111 88.1448C4.57111 96.5065 6.10213 96.518 6.10213 104.891C6.10213 113.265 5.86039 113.265 5.86039 121.638C5.86039 130.011 4.16821 130.011 4.16821 138.384C4.16821 146.758 3.1552 146.746 3.1552 155.12C3.1552 163.493 3.30485 163.493 3.30485 171.866C3.30485 180.239 5.99853 180.239 5.99853 188.601C5.99853 196.963 6.15969 196.974 6.15969 205.348C6.15969 213.721 5.38842 213.71 5.38842 222.083C5.38842 230.456 3.37392 230.456 3.37392 238.829C3.37392 247.203 5.67621 247.191 5.67621 255.564C5.67621 263.938 4.95099 263.926 4.95099 272.3C4.95099 280.673 5.14668 280.673 5.14668 289.035C5.14668 297.396 3.86891 297.408 3.86891 305.781C3.86891 314.154 4.51355 314.154 4.51355 322.516C4.51355 330.878 3.5581 330.89 3.5581 339.263C3.5581 347.636 4.31786 347.625 4.31786 355.998C4.31786 364.371 4.04158 364.371 4.04158 372.744C4.04158 381.118 3.06311 381.106 3.06311 389.48C3.06311 397.853 6.09062 397.853 6.09062 406.215C6.09062 414.576 4.11065 414.588 4.11065 422.961C4.11065 431.334 3.92647 431.323 3.92647 439.696C3.92647 448.07 3.92647 448.07 3.92647 456.431C3.92647 464.793 3.04009 464.805 3.04009 473.178C3.04009 481.551 4.45599 481.54 4.45599 489.913C4.45599 498.286 4.74378 498.286 4.74378 506.648C4.74378 515.01 4.64018 515.021 4.64018 523.395C4.64018 531.768 4.1567 531.756 4.1567 540.13C4.1567 548.503 5.03157 548.468 5.03157 556.865C5.03157 565.261 2.86741 565.238 2.86741 573.6C2.86741 581.962 4.01856 581.973 4.01856 590.335C4.01856 598.697 4.01856 598.708 4.01856 607.07C4.01856 615.432 4.01856 615.443 4.01856 623.817C4.01856 632.19 -2.45087 635.698 3.50054 641.633C4.10259 642.327 4.84178 642.89 5.67177 643.286C6.50177 643.682 7.40466 643.902 8.32384 643.933C11.9384 643.933 15.4264 640.483 21.3318 640.483C29.7121 640.483 29.7121 641.081 38.0924 641.081C46.4728 641.081 46.4728 640.782 54.8531 640.782C63.2334 640.782 63.2334 640.897 71.6138 640.897C79.9941 640.897 79.9826 640.333 88.3629 640.333C96.7432 640.333 96.7432 639.183 105.124 639.183C113.504 639.183 113.504 639.114 121.884 639.114C130.265 639.114 130.253 640.471 138.633 640.471C147.014 640.471 147.014 638.907 155.394 638.907C163.774 638.907 163.774 642.196 172.155 642.196C180.535 642.196 180.524 642.081 188.904 642.081C197.284 642.081 197.284 640.391 205.653 640.391C214.022 640.391 214.033 640.218 222.414 640.218C230.794 640.218 230.794 638.964 239.163 638.964C247.532 638.964 247.543 641.736 255.924 641.736C264.304 641.736 264.292 640.345 272.673 640.345C281.053 640.345 281.041 639.689 289.422 639.689C297.802 639.689 297.802 640.759 306.182 640.759C314.563 640.759 314.551 641.253 322.932 641.253C331.312 641.253 331.312 641.161 339.681 641.161C348.05 641.161 348.061 639.056 356.441 639.056C364.822 639.056 364.822 642.162 373.191 642.162C381.559 642.162 381.571 639.769 389.951 639.769C398.332 639.769 398.32 640.126 406.7 640.126C415.081 640.126 415.081 640.414 423.45 640.414C431.818 640.414 431.83 640.287 440.21 640.287C448.591 640.287 448.579 642.242 456.959 642.242C465.34 642.242 465.34 642.081 473.709 642.081C482.077 642.081 482.089 640.655 490.469 640.655C498.85 640.655 498.838 641.46 507.218 641.46C515.599 641.46 515.599 640.161 523.967 640.161C532.336 640.161 532.348 640.609 540.728 640.609C549.108 640.609 549.097 642.001 557.477 642.001C565.858 642.001 565.846 641.506 574.226 641.506C582.607 641.506 582.595 642.127 590.976 642.127C599.356 642.127 599.356 638.815 607.725 638.815C616.094 638.815 616.105 641.058 624.474 641.058C629.723 641.058 632.532 643.013 635.283 643.013C636.941 643.013 638.61 642.323 640.82 640.103C646.749 634.18 642.892 632.316 641.166 623.77C639.496 615.57 640.717 615.386 640.717 607.012C640.717 598.639 641.868 598.639 641.868 590.266C641.868 581.893 641.039 581.893 641.039 573.519C641.039 565.146 642.524 565.158 642.524 556.784C642.524 548.411 639.888 548.468 639.888 540.072C639.888 531.676 641.707 531.699 641.707 523.326C641.707 514.952 640.947 514.952 640.947 506.591C640.947 498.229 642.731 498.217 642.731 489.844C642.731 481.471 641.131 481.471 641.131 473.097C641.131 464.724 642.386 464.736 642.386 456.362C642.386 447.989 642.294 447.989 642.294 439.616C642.294 431.242 639.888 431.254 639.888 422.881C639.888 414.507 640.82 414.507 640.82 406.134C640.82 397.761 640.694 397.772 640.694 389.399C640.694 381.026 640.832 381.037 640.832 372.664C640.832 364.291 640.222 364.302 640.222 355.929C640.222 347.556 642.409 347.556 642.409 339.182C642.409 330.809 642.869 330.821 642.869 322.447C642.869 314.074 639.612 314.074 639.612 305.712C639.612 297.35 641.327 297.339 641.327 288.966C641.327 280.592 642.95 280.592 642.95 272.231C642.95 263.869 642.731 263.857 642.731 255.484C642.731 247.111 640.97 247.111 640.97 238.749C640.97 230.387 641.476 230.376 641.476 222.002C641.476 213.629 640.498 213.641 640.498 205.267C640.498 196.894 641.649 196.894 641.649 188.532C641.649 180.17 640.406 180.159 640.406 171.786C640.406 163.412 641.027 163.424 641.027 155.051C641.027 146.677 639.819 146.677 639.819 138.315C639.819 129.954 639.646 129.942 639.646 121.58C639.646 113.219 642.57 113.207 642.57 104.834C642.57 96.4605 640.268 96.472 640.268 88.0988C640.268 79.7255 641.81 79.737 641.81 71.3637C641.81 62.9904 640.003 62.9904 640.003 54.6286C640.003 46.2668 639.658 46.2553 639.658 37.8935C639.658 29.5318 639.658 29.5203 639.658 21.147C639.658 12.7737 646.645 10.8644 640.728 4.94098C638.668 2.89367 637.102 2.22657 635.583 2.22657C632.693 2.22657 629.965 4.63044 624.485 4.63044C616.105 4.63044 616.105 4.81446 607.713 4.81446C599.321 4.81446 599.344 4.81446 590.964 4.81446C582.584 4.81446 582.584 3.88282 574.203 3.88282C565.823 3.88282 565.823 5.15952 557.443 5.15952C549.062 5.15952 549.074 4.00934 540.694 4.00934C532.313 4.00934 532.313 5.15952 523.933 5.15952C515.553 5.15952 515.553 4.30839 507.172 4.30839C498.792 4.30839 498.792 2.73264 490.423 2.73264C482.054 2.73264 482.043 3.42275 473.662 3.42275C465.282 3.42275 465.259 2.83616 456.856 2.83616C448.452 2.83616 448.487 4.28538 440.107 4.28538C431.726 4.28538 431.726 4.59593 423.357 4.59593C414.989 4.59593 414.977 4.13586 406.597 4.13586C398.216 4.13586 398.251 4.4349 389.871 4.4349C381.49 4.4349 381.49 5.7346 373.122 5.7346C364.753 5.7346 364.764 5.36655 356.361 5.36655C347.958 5.36655 347.992 4.86047 339.612 4.86047C331.231 4.86047 331.231 5.87263 322.863 5.87263C314.494 5.87263 314.482 4.4349 306.056 4.4349C297.629 4.4349 297.676 3.56077 289.307 3.56077C280.938 3.56077 280.926 4.10135 272.546 4.10135C264.166 4.10135 264.177 3.97483 255.797 3.97483C247.417 3.97483 247.417 3.15821 239.048 3.15821C230.679 3.15821 230.667 3.68729 222.287 3.68729C213.907 3.68729 213.964 5.58508 205.584 5.58508C197.204 5.58508 197.204 2.70964 188.835 2.70964C180.466 2.70964 180.454 4.28538 172.074 4.28538C163.694 4.28538 163.694 4.83747 155.325 4.83747C146.956 4.83747 146.945 5.58508 138.564 5.58508C130.184 5.58508 130.196 2.84766 121.873 2.84766C113.55 2.84766 113.446 5.36655 105.066 5.36655C96.6857 5.36655 96.6857 3.69879 88.3169 3.69879C79.9481 3.69879 79.9365 4.99849 71.5677 4.99849C63.1989 4.99849 63.1644 3.51476 54.8071 3.51476C46.4497 3.51476 46.4382 5.96464 38.0579 5.96464C29.6776 5.96464 29.6891 2.90517 21.3087 2.90517C16.0826 2.90517 12.963 0.984375 9.91242 0.984375Z" fill="#8337FF"/>
<path d="M221.86 11.8651C222.079 12.0607 222.309 12.3022 222.516 12.5092C224.641 14.7592 227.132 16.6336 229.884 18.0531C232.651 19.4854 235.545 20.6597 238.529 21.5611C240.782 22.2325 242.964 23.1224 245.044 24.218C246.91 25.1011 248.596 26.3217 250.017 27.8181C252.442 30.3331 255.295 32.3972 258.443 33.914C261.298 35.4231 264.324 36.5817 267.457 37.3646C269.67 37.8883 271.809 38.6882 273.823 39.7454C275.936 40.7735 277.942 42.0104 279.809 43.4375C282.293 45.3299 284.958 46.9749 287.763 48.3488C290.593 49.8219 293.578 50.9791 296.661 51.7993C298.885 52.3747 301.033 53.2085 303.062 54.2837C305.327 55.4036 307.532 56.6398 309.669 57.9872C312.147 59.5482 314.702 60.9838 317.325 62.2889C320.067 63.7091 322.929 64.8868 325.878 65.8084C328.174 66.5111 330.402 67.4236 332.531 68.5344C336.1 70.3401 337.815 71.2603 339.622 72.2264C341.429 73.1926 343.294 74.2047 347.012 76.0795C349.05 77.0597 350.953 78.2966 352.676 79.7601C355.162 81.8346 357.891 83.5996 360.803 85.0164C363.534 86.4391 366.385 87.6206 369.322 88.5474C371.601 89.2616 373.813 90.1777 375.929 91.2849C378.53 92.6211 381.197 93.8265 383.918 94.8964C385.726 95.6325 387.441 96.3226 390.825 98.0249C392.666 98.888 394.314 100.112 395.671 101.625C398.088 104.205 400.96 106.319 404.144 107.859C406.825 109.253 409.607 110.445 412.467 111.424C414.775 112.223 417.021 113.187 419.189 114.311C421.804 115.665 424.494 116.867 427.247 117.911C429.587 118.777 431.871 119.787 434.085 120.936C436.774 122.324 439.559 123.515 442.419 124.502C444.727 125.283 446.97 126.241 449.131 127.366C450.937 128.21 452.542 129.43 453.839 130.943C456.227 133.634 459.126 135.823 462.369 137.384C466.064 139.247 467.952 140.167 469.782 141.065C471.612 141.962 473.408 142.824 477 144.642C480.879 146.597 482.917 147.448 484.885 148.265C486.854 149.081 488.431 149.748 491.792 151.474C494.433 152.83 497.15 154.032 499.931 155.074C502.268 155.932 504.548 156.939 506.757 158.087C510.659 160.054 512.72 160.894 514.711 161.71C516.53 162.446 518.245 163.148 521.618 164.862C523.871 165.98 526.062 167.22 528.18 168.577C530.661 170.153 533.224 171.597 535.858 172.901C538.705 174.399 541.719 175.557 544.837 176.352C547.049 176.901 549.186 177.716 551.203 178.779C553.02 179.632 554.639 180.854 555.957 182.367C558.361 185.012 561.253 187.168 564.475 188.716C567.267 190.168 570.203 191.325 573.235 192.167C575.481 192.794 577.653 193.658 579.716 194.743C583.296 196.549 585.012 197.469 586.83 198.435C588.649 199.401 590.503 200.391 594.221 202.277C597.939 204.163 599.792 205.06 601.623 205.946C603.453 206.832 605.249 207.717 608.852 209.546C610.915 210.53 612.849 211.766 614.608 213.227C617.087 215.257 619.791 216.997 622.666 218.414C625.985 220.063 629.666 220.854 633.371 220.714H633.751C633.889 221.151 633.97 221.473 634.016 221.68C633.774 221.956 633.452 222.301 633.176 222.589C631.08 224.708 629.318 227.131 627.949 229.778C625.992 233.631 625.141 235.655 624.312 237.61C623.483 239.566 622.804 241.164 621.054 244.592C619.086 248.48 618.245 250.55 617.439 252.54C616.691 254.357 616 256.071 614.274 259.441C612.478 263.006 611.557 264.708 610.579 266.514C609.6 268.32 608.599 270.183 606.711 273.91C604.823 277.636 603.936 279.339 603.016 281.099C602.095 282.858 601.105 284.756 599.251 288.425C598.397 290.247 597.174 291.873 595.66 293.198C593.012 295.594 590.854 298.481 589.305 301.698C587.576 304.95 586.567 308.535 586.347 312.211C586.278 314.141 585.757 316.027 584.827 317.72C583.009 321.32 582.099 323.045 581.132 324.874C580.165 326.703 579.198 328.532 577.334 332.224C576.21 334.488 574.969 336.691 573.615 338.826C572.464 340.666 571.313 342.564 569.322 346.475C568.286 348.586 567.049 350.593 565.626 352.467C563.737 354.953 562.09 357.614 560.711 360.415C558.996 363.808 558.029 365.383 557.004 367.051C555.853 368.891 554.702 370.789 552.745 374.677C551.207 377.612 550.076 380.742 549.384 383.982C548.954 386.134 548.21 388.212 547.174 390.147C546.219 392.129 544.987 393.965 543.513 395.599C541.315 398.074 539.463 400.837 538.01 403.811C536.387 406.88 535.308 410.208 534.822 413.645C534.554 415.704 533.91 417.696 532.922 419.522C531.872 421.672 530.631 423.723 529.216 425.653C527.406 428.139 525.811 430.775 524.45 433.531C522.62 437.155 521.687 438.96 520.755 440.766C519.822 442.572 518.89 444.412 517.037 448.081C516.049 450.142 514.812 452.073 513.353 453.832C511.312 456.306 509.566 459.007 508.15 461.883C506.551 464.904 505.451 468.162 504.892 471.533C504.569 473.628 503.887 475.651 502.877 477.514C501.909 479.533 500.674 481.413 499.205 483.104C497.077 485.577 495.278 488.314 493.853 491.247C492.228 494.321 491.146 497.652 490.652 501.093C490.393 503.152 489.753 505.145 488.764 506.97C487.815 508.948 486.582 510.777 485.104 512.399C482.889 514.874 481.026 517.641 479.567 520.623C478.14 523.392 476.984 526.293 476.113 529.284C475.448 531.541 474.565 533.729 473.477 535.817C472.483 537.876 471.242 539.807 469.782 541.568C467.765 544.051 466.032 546.752 464.613 549.619C463.253 552.254 462.054 554.97 461.022 557.751C460.153 560.082 459.146 562.359 458.006 564.571C456.921 566.77 455.678 568.888 454.288 570.909C452.602 573.398 451.083 575.995 449.741 578.684C447.83 582.456 446.943 584.435 446.08 586.309C445.217 588.184 444.445 589.898 442.627 593.418C440.808 596.937 439.841 598.961 438.943 600.779C438.045 602.596 437.159 604.402 435.328 608.013C434.718 609.221 434.177 610.21 433.751 611.073C431.422 615.254 429.731 619.758 428.732 624.438C428.111 626.842 427.777 628.877 427.501 630.499C427.367 631.48 427.175 632.451 426.925 633.409C426.359 633.734 425.756 633.989 425.129 634.168L424.738 634.283C424.473 633.996 424.139 633.628 423.874 633.317C421.687 630.618 418.973 628.391 415.897 626.773C413.637 625.653 411.439 624.413 409.312 623.058C406.835 621.482 404.276 620.039 401.646 618.733C398.561 617.105 395.214 616.03 391.758 615.558C389.705 615.302 387.718 614.666 385.898 613.684C383.786 612.659 381.784 611.422 379.924 609.992C377.433 608.099 374.765 606.451 371.958 605.069C368.136 603.148 366.133 602.274 364.211 601.434C362.288 600.595 360.642 599.87 357.166 598.122C354.945 597.025 352.8 595.784 350.742 594.407C348.261 592.757 345.677 591.267 343.007 589.944C340.754 588.826 338.563 587.585 336.445 586.229C333.964 584.649 331.401 583.202 328.767 581.893C326.094 580.511 323.328 579.316 320.49 578.316C318.175 577.513 315.92 576.545 313.744 575.417C310.905 573.928 307.904 572.77 304.8 571.967C302.584 571.408 300.443 570.585 298.423 569.517C296.655 568.695 295.1 567.479 293.876 565.963C291.509 563.167 288.579 560.901 285.277 559.315C282.124 557.647 278.682 556.597 275.135 556.221C273.118 556.047 271.159 555.46 269.379 554.496C267.273 553.467 265.276 552.23 263.416 550.803C260.927 548.9 258.254 547.247 255.439 545.869C251.571 543.914 249.534 543.063 247.554 542.235C245.574 541.407 244.008 540.762 240.647 539.037C238.643 538.076 236.784 536.842 235.121 535.368C232.644 533.21 229.892 531.389 226.937 529.951C223.937 528.371 220.71 527.265 217.371 526.673C215.259 526.321 213.221 525.621 211.339 524.602C208.719 523.258 206.029 522.057 203.281 521.002C200.927 520.085 198.622 519.049 196.374 517.897C194.444 516.98 192.678 515.752 191.148 514.262C188.69 511.929 185.887 509.989 182.836 508.511C180.645 507.429 178.537 506.187 176.528 504.796C174.038 503.082 171.43 501.544 168.723 500.196C165.882 498.712 162.881 497.554 159.779 496.745C157.563 496.184 155.422 495.362 153.402 494.295C150.783 492.946 148.093 491.741 145.344 490.684C142.989 489.769 140.683 488.732 138.437 487.578C136.431 486.62 134.567 485.39 132.9 483.921C130.426 481.766 127.678 479.948 124.727 478.515C121.273 476.755 119.581 475.812 117.82 474.811C116.058 473.811 114.124 472.695 110.314 470.774C106.504 468.853 104.34 467.956 102.348 467.151C100.529 466.415 98.8142 465.725 95.4414 464.011C91.5275 462.044 89.4554 461.205 87.4524 460.4C85.0972 459.478 82.7918 458.433 80.5456 457.271C76.954 455.454 75.2158 454.545 73.374 453.579C71.5321 452.613 69.7133 451.658 66.0297 449.795C63.2629 448.352 60.3641 447.177 57.373 446.287C55.1126 445.615 52.9228 444.725 50.8345 443.63C48.5938 442.523 46.4218 441.283 44.3306 439.915C41.8464 438.303 39.2712 436.836 36.6179 435.521C32.8191 433.589 30.8622 432.715 28.9052 431.864C26.9483 431.013 25.3252 430.288 21.8372 428.528C19.3804 427.295 16.7717 426.39 14.0785 425.837L12.9274 425.549C12.7052 425.101 12.5204 424.636 12.3748 424.158C12.2247 423.73 12.1055 423.291 12.018 422.846C12.2252 422.593 12.5014 422.283 12.7317 422.03C14.6422 419.956 16.2646 417.635 17.555 415.129C19.2702 411.736 20.2371 410.16 21.2616 408.492C22.2862 406.824 23.5639 404.766 25.5324 400.866C26.9954 398.057 28.1531 395.1 28.9858 392.045C29.586 389.815 30.4314 387.659 31.5068 385.615C32.3773 383.76 33.6011 382.092 35.1099 380.704C37.6627 378.287 39.7535 375.427 41.28 372.262C42.6216 369.667 43.8318 367.007 44.9061 364.291C45.6429 362.474 46.3336 360.76 48.0373 357.39C49.9827 353.56 50.8461 351.547 51.6864 349.603C52.5267 347.659 53.4131 346.037 55.1628 342.587C56.2258 340.422 57.4656 338.349 58.8695 336.387C60.6379 333.902 62.2046 331.279 63.5547 328.543C65.408 324.886 66.3174 323.057 67.2384 321.217C68.1593 319.376 69.0572 317.582 70.899 313.959C72.268 311.313 73.4638 308.582 74.4791 305.781C75.2962 303.46 76.2771 301.2 77.4145 299.018C78.8542 296.231 80.0112 293.306 80.8679 290.288C81.5056 288.043 82.3736 285.869 83.458 283.801L87.1531 276.498L90.8138 269.229C92.7477 265.422 93.6226 263.478 94.4629 261.511C95.3033 259.544 96.04 257.945 97.8012 254.472C98.7192 252.54 99.9481 250.773 101.439 249.239C103.774 246.783 105.716 243.982 107.195 240.934C109.163 237.058 110.003 235.011 110.821 233.033C111.638 231.054 112.283 229.49 114.009 226.132C115.932 222.324 116.807 220.381 117.658 218.425C118.51 216.47 119.236 214.848 121.008 211.375C121.947 209.401 123.177 207.578 124.657 205.969C126.891 203.5 128.763 200.727 130.217 197.734C131.854 194.649 132.933 191.301 133.406 187.842C133.656 185.795 134.289 183.813 135.271 181.999C137.101 178.376 138.034 176.57 138.966 174.776C139.899 172.982 140.843 171.119 142.696 167.461C144.411 164.068 145.39 162.492 146.414 160.825C147.439 159.157 148.716 157.098 150.685 153.199C152.653 149.3 153.482 147.379 154.334 145.447C155.186 143.514 155.876 141.881 157.638 138.419C158.636 136.343 159.872 134.39 161.321 132.599C163.304 130.107 165.01 127.408 166.409 124.548C167.995 121.544 169.102 118.312 169.69 114.967C170.038 112.861 170.734 110.828 171.751 108.952C172.697 106.961 173.93 105.121 175.411 103.488C177.622 101.024 179.485 98.2683 180.948 95.299C182.687 91.8484 183.642 90.2957 184.667 88.6049C185.691 86.9142 186.9 84.8784 188.868 81.0138C190.473 77.9662 191.562 74.6745 192.091 71.2718C192.384 69.1926 193.047 67.1826 194.048 65.3369C194.953 63.4116 196.184 61.6568 197.686 60.1496C200.05 57.6938 202.015 54.8842 203.511 51.8223C205.41 48.0497 206.308 46.0714 207.171 44.2081C208.035 42.3448 208.806 40.6196 210.625 37.1C212.444 33.5805 213.353 31.8092 214.32 29.9804C215.287 28.1516 216.266 26.2884 218.13 22.5503C219.639 19.5063 220.49 16.1793 220.628 12.7853C220.628 12.6128 220.628 12.4172 220.628 12.2332L220.962 12.1067C221.331 11.9917 221.607 11.9112 221.814 11.8651H221.86ZM222.332 4.87207C221.129 4.91181 219.941 5.14083 218.81 5.55067C211.039 8.10407 215.609 12.1412 211.903 19.4333C208.196 26.7254 208.046 26.6449 204.363 33.9255C200.679 41.2062 200.967 41.3557 197.272 48.6478C193.576 55.9399 191.516 54.8818 187.809 62.1624C184.103 69.443 186.324 70.5587 182.629 77.8393C178.934 85.1199 178.404 84.8439 174.721 92.136C171.037 99.4281 169.253 98.508 165.512 105.8C161.77 113.092 163.865 114.116 160.182 121.396C156.498 128.677 155.094 127.975 151.399 135.199C147.703 142.422 148.141 142.698 144.492 149.978C140.843 157.259 140.198 156.96 136.514 164.241C132.831 171.521 132.773 171.498 129.089 178.779C125.406 186.059 127.719 187.233 124.036 194.513C120.352 201.794 118.51 200.862 114.827 208.154C111.143 215.446 111.523 215.63 107.839 222.911C104.156 230.192 104.708 230.468 101.024 237.748C97.3408 245.029 95.2687 244.005 91.6081 251.286C87.9474 258.567 88.3158 258.762 84.6321 266.043C80.9485 273.323 80.96 273.335 77.2763 280.615C73.5927 287.896 74.882 288.552 71.1983 295.832C67.5146 303.113 68.3665 303.55 64.6713 310.785C60.9761 318.019 61.0222 318.088 57.3385 325.369C53.6548 332.649 52.6303 332.132 48.9352 339.412C45.24 346.693 45.7004 346.935 42.0283 354.215C38.3561 361.496 38.9547 361.806 35.2711 369.087C31.5874 376.368 29.1815 375.16 25.4979 382.441C21.8142 389.721 23.1956 390.411 19.5004 397.692C15.8052 404.973 15.2066 404.674 11.5114 411.954C7.81628 419.235 3.38437 418.487 5.93991 426.239C8.49545 433.992 11.546 430.909 18.8327 434.601C26.1195 438.293 26.3267 438.052 33.671 441.698C41.0153 445.344 40.5778 446.114 47.8761 449.806C55.1744 453.499 55.773 452.279 63.0712 455.971C70.3695 459.663 70.3004 459.767 77.5871 463.459C84.8739 467.151 85.1962 466.507 92.483 470.199C99.7697 473.891 100.081 473.27 107.379 476.951C114.677 480.631 114.47 481.011 121.768 484.691C129.066 488.372 128.191 490.074 135.478 493.766C142.765 497.458 143.11 496.791 150.443 500.472C157.776 504.152 158.501 502.692 165.765 506.372C173.029 510.053 172.591 510.973 179.878 514.665C187.165 518.357 186.129 520.416 193.415 524.073C200.702 527.731 201.047 527.087 208.38 530.779C215.713 534.471 216.691 532.435 223.978 536.116C231.265 539.796 230.402 541.522 237.688 545.202C244.975 548.883 245.24 548.354 252.538 552.034C259.836 555.715 259.18 556.98 266.467 560.66C273.754 564.341 275.043 561.811 282.33 565.48C289.616 569.149 288.189 572.001 295.476 575.682C302.763 579.362 303.534 577.902 310.798 581.582C318.061 585.263 318.533 584.377 325.762 588.058C332.992 591.738 332.669 592.428 340.002 596.109C347.335 599.789 346.909 600.606 354.161 604.287C361.413 607.967 361.667 607.553 368.953 611.245C376.24 614.937 375.607 616.168 382.894 619.849C390.18 623.529 391.366 621.217 398.653 624.898C405.94 628.578 405.56 629.257 412.893 632.949C419.051 636.066 419.615 641.311 424.404 641.311C425.444 641.286 426.474 641.096 427.454 640.747C435.225 638.194 433.383 634.709 435.593 626.198C437.642 618.284 437.976 618.445 441.66 611.153C445.343 603.861 445.274 603.838 448.969 596.557C452.665 589.277 452.354 589.116 456.049 581.824C459.744 574.532 460.653 574.992 464.303 567.711C467.952 560.43 467.227 560.039 470.91 552.759C474.594 545.478 476.079 546.226 479.774 538.957C483.469 531.688 482.226 531.043 485.921 523.763C489.616 516.482 491.424 517.391 495.13 510.11C498.837 502.83 496.535 501.668 500.218 494.387C503.902 487.107 505.56 487.935 509.243 480.654C512.927 473.374 510.832 472.304 514.516 465.023C518.199 457.743 519.719 458.513 523.402 451.221C527.086 443.929 527.132 443.952 530.816 436.671C534.499 429.391 535.605 429.943 539.288 422.662C542.972 415.382 540.693 414.231 544.388 406.951C548.083 399.67 549.856 400.567 553.539 393.287C557.223 386.006 555.427 385.098 559.111 377.817C562.795 370.536 563.393 370.835 567.088 363.555C570.784 356.274 572.004 356.895 575.687 349.615C579.371 342.334 580.016 342.644 583.745 335.364C587.475 328.083 587.556 328.141 591.239 320.86C594.923 313.579 592.034 312.119 595.717 304.838C599.401 297.558 601.98 298.846 605.663 291.565C609.347 284.285 609.439 284.331 613.123 277.05C616.806 269.769 617.002 269.861 620.697 262.581C624.392 255.3 623.782 255.001 627.477 247.72C631.173 240.44 630.678 240.187 634.384 232.906C638.091 225.625 643.098 226.201 640.554 218.448C638.01 210.696 633.36 215.987 626.061 212.295C618.763 208.603 619.523 207.108 612.248 203.416C604.972 199.724 604.903 199.839 597.617 196.146C590.33 192.454 590.399 192.305 583.112 188.613C575.825 184.921 575.158 186.243 567.871 182.563C560.584 178.882 561.874 176.306 554.587 172.625C547.3 168.945 546.529 170.44 539.254 166.759C531.978 163.079 532.347 162.4 525.014 158.708C517.681 155.016 517.416 155.614 510.13 151.922C502.843 148.23 502.463 149.001 495.165 145.32C487.867 141.64 487.602 142.169 480.315 138.477C473.028 134.785 472.971 134.911 465.684 131.23C458.397 127.55 459.733 124.893 452.446 121.212C445.159 117.532 444.687 118.464 437.4 114.771C430.114 111.079 429.734 111.839 422.436 108.158C415.137 104.477 414.677 105.386 407.39 101.705C400.103 98.0249 401.174 95.552 393.887 91.8484C386.6 88.1449 386.278 88.789 378.991 85.1084C371.705 81.4278 371.152 82.5205 363.865 78.8399C356.579 75.1594 357.361 73.5836 350.052 69.9031C342.742 66.2225 342.857 66.0385 335.57 62.3579C328.283 58.6773 327.731 59.8275 320.444 56.193C313.157 52.5584 313.468 51.8798 306.181 48.1417C298.895 44.4036 298.123 45.8414 290.883 42.1953C283.642 38.5492 284.229 37.2726 276.942 33.592C269.656 29.9114 268.884 31.4412 261.586 27.7606C254.288 24.08 255.473 21.7452 248.187 18.0531C240.9 14.361 240.29 15.5802 233.003 11.8996C227.063 8.88619 226.557 4.87207 222.378 4.87207H222.332Z" fill="#8337FF"/>
<path d="M302.223 321.688C302.223 318.973 301.935 316.017 302.614 313.153C303.294 310.289 305.377 307.966 307.104 305.585C308.866 303.071 311.192 301.003 313.896 299.547C316.82 298.005 320.572 295.602 325.073 295.602C328.147 295.602 331.151 297.177 333.638 298.063C336.124 298.949 338.035 300.823 339.877 302.33C341.719 303.837 341.765 306.31 342.847 308.277C343.929 310.243 345.471 311.543 345.656 313.694C345.656 313.832 345.379 312.912 345.276 313.004C341.143 317.282 343.169 319.548 338.438 323.137C337.621 323.758 337.471 321.32 337.471 320.296C337.571 318.588 337.475 316.875 337.183 315.189C336.78 313.498 334.962 312.889 333.983 311.509C333.005 310.128 333.385 307.207 331.75 306.367C329.662 305.382 327.383 304.863 325.073 304.849C322.598 304.849 320.929 307.241 319.318 308.196C317.706 309.151 315.599 309.484 314.713 310.991C313.827 312.498 314.183 314.58 313.815 316.397C313.447 318.214 312.445 319.847 312.445 321.504C312.509 323.281 312.74 325.049 313.136 326.783C313.47 328.566 312.963 330.947 313.896 332.396C314.828 333.845 317.28 334.294 318.88 335.214C320.838 336.189 323.015 336.641 325.2 336.525C328.147 336.525 330.956 336.283 332.866 334.811C334.623 333.209 336.012 331.247 336.942 329.06C337.218 328.508 336.55 328.129 337.034 328.508C341.408 331.959 341.189 332.108 344.977 336.214C345.149 336.41 344.781 335.582 344.62 335.789C342.317 338.687 340.453 342.115 337.402 343.748C334.351 345.381 330.035 344.68 325.292 344.68C320.791 344.68 316.773 345.278 313.85 343.828C310.926 342.379 309.867 339.159 308.094 336.927C306.321 334.696 302.637 333.224 301.935 330.383C301.233 327.542 302.223 324.39 302.223 321.688Z" fill="#8337FF"/>
<path d="M351.158 281.891C351.158 279.982 350.997 278.142 351.803 276.635C352.609 275.128 354.83 275.186 356.154 274.173C357.478 273.161 357.593 269.653 359.297 269.136C361.183 268.701 363.12 268.531 365.053 268.63C367.021 268.63 368.299 271.712 369.991 272.322C371.436 272.818 372.752 273.627 373.847 274.691C375.114 275.841 377.094 276.002 377.83 277.578C378.513 279.202 378.82 280.96 378.728 282.719C378.728 284.882 379.603 287.205 378.797 288.804C377.991 290.402 375.747 291.104 374.4 292.254C373.053 293.404 372.385 295.935 370.728 296.797C369.07 297.66 366.238 296.073 364.442 296.797C364.327 296.912 364.834 299.098 364.65 299.098C364.465 299.098 364.143 299.431 364.028 299.489C371.464 299.489 372.811 293.922 379.43 297.338C382.884 299.086 381.733 303.089 378.279 304.906C372.144 308.265 371.89 306.758 364.88 306.758C357.869 306.758 357.708 307.759 350.778 306.758C349.765 306.62 349.823 304.998 349.823 303.986C349.823 302.261 351.388 300.858 352.01 299.604C352.632 298.35 353.967 297.982 354.957 297.097C355.947 296.211 355.866 293.784 357.11 293.14C358.353 292.496 360.563 293.957 361.829 293.404C362.393 293.094 361.99 290.69 362.566 290.448C363.142 290.207 364.661 292.001 365.214 291.691C366.756 291.012 367.366 288.712 368.506 287.481C369.738 286.35 370.474 284.78 370.555 283.11C370.555 279.855 368.564 278.613 364.937 278.613C363.655 278.518 362.371 278.755 361.208 279.303C360.744 279.523 360.364 279.888 360.125 280.342C359.887 280.796 359.802 281.316 359.884 281.822C359.884 282.501 360.575 282.443 360.874 282.903C361.098 283.411 361.406 283.877 361.783 284.284C362.14 284.571 362.509 285.353 362.209 285.71C359.585 288.792 360.183 289.781 356.96 292.231C356.615 292.496 356.776 289.609 356.453 289.333C355.164 288.183 351.849 288.85 351.009 287.516C350.168 286.181 351.158 283.8 351.158 281.891Z" fill="#8337FF"/>
<path d="M99.7363 41.4366C99.7363 40.689 98.8384 40.2865 99.1262 39.6539C99.4139 39.0213 98.9995 37.8826 99.506 37.457C100.013 37.0315 101.394 38.4232 102.073 38.1931C102.752 37.9631 103.04 36.3874 103.788 36.3874C104.537 36.3874 104.939 38.0666 105.573 38.1471C106.206 38.2277 107.058 36.9049 107.725 36.9049C108.393 36.9049 108.048 35.5247 108.485 35.1567C108.922 34.7886 109.13 35.3982 109.13 34.7771C109.13 34.3976 110.58 33.5694 110.384 33.3049C110.097 32.936 109.751 32.6173 109.36 32.3618C109.038 32.2007 108.048 34.0295 107.645 33.949C107.242 33.8685 107.069 31.8097 106.666 31.8097C105.481 31.9381 104.363 32.4189 103.454 33.1899C102.718 33.719 101.774 36.1573 101.451 37.3765C99.8661 36.6323 98.6291 35.3057 97.998 33.673C98.9074 32.3272 100.3 29.4173 101.59 28.7272C102.879 28.0371 105.043 29.4978 106.816 29.4978C107.725 29.4978 108.75 28.6122 109.602 28.8192C110.453 29.0262 111.904 28.8192 112.537 29.2678C113.17 29.7163 112.997 31.4301 113.4 32.1317C113.803 32.8333 114.966 33.7075 114.966 34.7081C114.966 38.2737 112.664 38.2737 112.664 41.8507C112.664 42.5753 115.277 43.2309 115.323 43.9555C115.369 44.6801 114.068 45.5313 114.31 46.2559C114.39 46.4629 114.69 45.1632 114.471 45.1862C112.894 45.4048 113.078 46.2214 111.489 46.1869C111.489 46.1869 112.387 45.5083 112.341 45.4738C112.03 45.1517 112.341 45.3357 112.123 44.8297C111.904 44.3236 110.718 44.013 110.649 43.599C110.534 43.4725 109.371 42.9894 109.245 43.1044C107.806 44.3926 109.026 45.8878 107.311 46.7965C106.229 47.3601 106.01 45.6463 104.79 45.6463C103.961 45.6463 102.844 47.8431 102.05 47.6361C101.256 47.4291 101.348 45.2207 100.738 44.8067C100.128 44.3926 98.0441 45.1517 97.6757 44.4961C97.3074 43.8405 99.7363 42.3913 99.7363 41.4366ZM105.492 45.3472C106.401 45.3472 107.403 44.1971 107.978 43.8405C108.554 43.484 108.335 42.3568 108.669 41.8392C109.003 41.3216 111.041 41.2986 111.167 40.6085C111.294 39.9184 109.901 39.0098 109.947 38.2507C109.947 38.0896 109.314 36.7669 109.164 36.8359C108.888 37.112 109.164 38.5727 108.761 38.7222C108.358 38.8718 108.301 40.4705 107.898 40.5395C107.495 40.6085 106.885 40.1715 106.493 40.183C106.102 40.1945 105.688 38.4692 105.342 38.4692C104.458 38.4529 103.579 38.6213 102.764 38.9638C102.165 39.2858 103.454 40.643 103.454 41.4366C103.454 42.2303 102.154 43.6795 102.764 44.0245C103.544 44.6589 104.457 45.1108 105.434 45.3472H105.492Z" fill="#8337FF"/>
<path d="M29.4586 547.319C29.4586 546.56 27.2254 545.203 27.5247 544.605C27.824 544.007 30.4716 545.214 30.9781 544.789C31.4846 544.363 31.335 543.317 32.0141 543.087C32.6933 542.857 33.3149 542.075 34.0632 542.075C34.8114 542.075 35.5712 540.855 36.2273 540.924C36.8835 540.993 37.3785 543.029 37.9886 543.029C38.6573 542.991 39.2955 542.736 39.8074 542.305C40.2563 541.948 38.9555 541.258 38.9555 540.648C38.9555 540.257 40.5441 539.682 40.3369 539.418C40.1297 539.153 39.0937 540.096 38.7714 539.947C38.449 539.797 38.5642 538.647 38.1728 538.566C37.7814 538.486 37.3439 539.717 36.9295 539.717C35.6748 539.717 34.7424 538.912 34.0056 539.452C33.2689 539.993 33.1192 539.924 32.8545 541.154C30.9436 540.154 29.0327 541.557 28.0772 539.625C28.9866 538.29 31.7954 537.508 33.0732 536.818C34.351 536.128 35.3755 534.771 37.0792 534.771C37.9886 534.771 39.1858 533.782 40.0491 534C40.9125 534.219 41.6838 535.311 42.3514 535.772C43.0191 536.232 41.7413 538.152 42.1442 538.854C42.5471 539.556 43.422 539.579 43.422 540.579C43.422 544.145 43.917 544.145 43.917 547.71C43.917 548.446 45.3789 549.102 45.425 549.827C45.471 550.551 43.3759 551.759 43.6292 552.449C43.6983 552.656 44.9415 550.988 44.7113 551.023C43.1457 551.241 43.3184 552.461 41.7298 552.438C41.6722 552.438 41.9025 552.15 41.8564 552.104C41.5341 551.794 42.3514 551.218 42.2018 550.724C42.0521 550.229 40.6938 550.126 40.6247 549.712C40.4981 549.597 39.4736 548.7 39.3815 548.815C37.9425 550.103 39.5887 552.323 37.8735 553.22C36.7799 553.795 36.2619 553.461 35.0301 553.461C34.1077 553.63 33.1703 553.703 32.2329 553.68C31.4501 553.473 30.9206 551.989 30.2989 551.563C29.6773 551.138 30.5061 549.689 30.1378 549.033C29.714 548.561 29.4731 547.953 29.4586 547.319ZM35.7093 550.666C36.6302 550.666 36.6648 548.147 37.2518 547.848C37.8389 547.549 40.1182 549.275 40.4635 548.769C40.8089 548.262 40.2448 546.974 40.3714 546.284C40.4981 545.594 39.9455 544.961 39.9916 544.202C39.9225 544.053 40.8089 545.491 40.6477 545.56C40.3714 545.836 39.2548 544.214 38.8865 544.409C38.5561 544.594 38.2043 544.737 37.8389 544.835C37.4475 544.904 37.1252 546.537 36.6878 546.549C36.2504 546.56 35.859 544.789 35.5366 544.789C34.6848 544.789 34.4546 546.261 33.856 546.572C33.2574 546.882 32.371 546.572 32.371 547.365C32.371 548.159 33.384 547.837 33.9826 548.193C34.5812 548.55 34.7769 550.62 35.7093 550.62V550.666Z" fill="#8337FF"/>
<path d="M532.256 614.558C532.256 613.799 534.558 613.58 534.811 612.97C535.065 612.361 533.96 610.67 534.466 610.222C535.126 609.771 535.853 609.426 536.619 609.198C537.309 608.968 538.299 610.417 539.048 610.417C539.796 610.417 540.567 608.048 541.212 608.117C541.856 608.186 542.363 608.749 542.973 608.749C543.583 608.749 544.642 610.279 545.091 609.899C545.54 609.52 545.586 608.485 545.586 607.875C545.586 607.484 544.435 607.76 544.228 607.496C544.021 607.231 544.527 606.414 544.228 606.253C543.928 606.092 543.848 604.448 543.457 604.356C543.065 604.264 542.305 606.944 541.925 606.944C540.671 606.944 539.404 605.678 538.668 606.207C537.931 606.736 537.517 608.289 537.206 609.52C535.295 608.519 536.711 607.415 535.755 605.494C536.665 604.149 536.319 603.942 537.597 603.194C538.875 602.446 540.325 600.479 542.029 600.479C542.938 600.479 544.032 601.388 544.884 601.63C545.736 601.871 545.621 603.93 546.288 604.425C546.956 604.919 549.396 603.815 549.799 604.517C550.202 605.218 547.819 606.817 547.819 607.772C547.819 611.337 550.893 611.337 550.893 614.903C550.893 615.639 550.651 616.271 550.697 617.008C550.743 617.744 548.683 618.813 548.936 619.503C549.017 619.71 550.087 619.434 549.834 619.503C548.257 619.722 548.257 620.424 546.668 620.389C546.599 620.389 547.416 618.779 547.37 618.733C547.048 618.411 545.644 618.986 545.483 618.491C545.321 617.997 546.346 616.651 546.277 616.248C546.162 616.122 545.229 616.812 545.126 616.916C543.687 618.204 544.803 620.033 543.1 620.93C542.006 621.505 541.235 620.596 540.003 620.596C539.186 620.596 537.977 621.194 537.183 620.987C536.388 620.78 535.905 619.204 535.295 618.779C534.685 618.353 534.662 617.376 534.293 616.731C533.925 616.087 532.256 615.466 532.256 614.558ZM540.682 615.708C541.603 615.708 542.812 617.652 543.399 617.364C543.986 617.077 543.146 615.19 543.48 614.684C543.832 614.281 544.074 613.794 544.182 613.27C544.32 612.591 545.943 611.763 545.989 610.969C545.931 610.808 545.793 612.706 545.644 612.775C545.367 613.051 544.803 612.775 544.435 612.936C544.067 613.097 543.134 611.418 542.731 611.487C542.328 611.556 542.052 612.016 541.649 612.027C541.246 612.039 540.878 613.304 540.498 613.304C539.646 613.304 538.921 612.487 538.334 612.798C537.747 613.108 535.87 613.695 535.87 614.489C535.87 615.282 538.334 614.96 538.944 615.317C539.453 615.663 540.072 615.811 540.682 615.731V615.708Z" fill="#8337FF"/>
<path d="M603.05 109.262C603.05 108.515 602.221 107.341 602.52 106.732C602.82 106.122 605.11 107.169 605.617 106.732C606.123 106.295 605.743 104.57 606.423 104.351C607.102 104.132 607.954 106.007 608.725 106.007C609.496 106.007 610.198 103.155 610.843 103.235C611.488 103.316 611.994 106.053 612.65 106.053C613.307 106.053 613.491 103.971 613.94 103.603C614.389 103.235 614.699 103.212 614.699 102.591C614.699 102.212 615.666 101.257 615.471 101.004C615.275 100.751 613.663 102.223 613.353 102.062C613.042 101.901 613.191 100.797 612.788 100.716C612.386 100.636 612.006 99.4972 611.637 99.4972C610.394 99.4972 610.026 101.66 609.335 102.189C608.644 102.718 607.608 102.384 607.298 103.603C605.387 102.614 605.225 102.764 604.27 100.843C605.078 99.6815 606.178 98.7533 607.459 98.1515C608.791 97.4514 610.283 97.1105 611.787 97.1624C612.645 97.2432 613.489 97.4365 614.296 97.7375C615.148 97.956 616.507 97.0819 617.186 97.5534C617.865 98.025 617.186 99.6928 617.566 100.394C617.946 101.096 619.741 101.545 619.741 102.522C619.741 106.099 620.651 106.099 620.651 109.665C620.651 110.389 618.521 111.149 618.567 111.873C618.613 112.598 619.419 113.196 619.718 113.874C619.799 114.081 619.868 114.231 619.649 114.265C618.072 114.473 618.049 115.784 616.461 115.749C616.089 115.662 615.724 115.551 615.367 115.416C614.956 114.821 614.642 114.165 614.435 113.472C614.273 112.966 614.273 113.242 614.204 112.839C614.078 112.713 614.619 111.045 614.492 111.16C613.042 112.437 614.343 114.265 612.627 115.163C611.545 115.738 611.016 113.104 609.784 113.104C609.071 113.237 608.342 113.268 607.62 113.196C606.837 112.989 605.836 113.702 605.214 113.288C604.529 112.917 603.932 112.403 603.464 111.781C603.139 110.983 602.997 110.122 603.05 109.262ZM610.348 111.563C611.257 111.563 611.499 110.412 612.063 110.159C612.627 109.906 614.757 111.218 615.102 110.711C615.448 110.205 614.17 108.768 614.308 108.089C614.446 107.41 616.438 106.157 616.484 105.409C616.426 105.248 615.332 107.1 615.125 107.169C614.861 107.445 613.479 105.156 613.111 105.306C612.742 105.455 613.007 107.479 612.616 107.606C612.224 107.732 611.718 107.41 611.327 107.422C610.935 107.433 610.532 106.157 610.175 106.157C609.324 106.157 609.185 108.377 608.587 108.699C607.988 109.021 607.217 108.515 607.217 109.308C607.217 110.102 606.918 111.609 607.528 112.011C608.138 112.414 609.439 111.574 610.383 111.574L610.348 111.563Z" fill="#8337FF"/>
<path d="M27.5363 182.022C27.3406 182.022 28.3766 181.423 28.4227 181.228C28.4999 180.464 28.5268 179.695 28.5033 178.928C28.6396 178.166 28.7356 177.399 28.791 176.627C28.791 166.276 27.0413 166.184 28.9407 155.924C29.2975 154.026 30.23 154.417 30.8861 156.235C32.7049 161.215 32.3481 161.088 32.5207 166.402C32.5207 166.563 31.3696 165.77 31.5193 165.643C31.8991 164.78 34.0287 165.908 34.8345 165.424C35.6404 164.941 35.9857 162.354 37.1368 162.354C38.4837 162.354 39.2895 164.47 40.1989 165.056C41.03 165.54 41.7266 166.224 42.2249 167.046C42.8711 167.843 43.3665 168.752 43.6869 169.726C43.8425 170.742 43.885 171.772 43.8135 172.797C43.989 173.866 44.0162 174.953 43.8941 176.029C43.6063 177.064 43.9631 178.686 43.3415 179.48C42.7199 180.273 40.2334 178.778 39.278 179.261C38.3225 179.744 37.8966 181.746 36.5613 181.746C36.3541 181.746 36.0548 181.826 35.6749 181.826C35.295 181.826 35.9166 180.446 35.7555 180.4C34.3971 179.112 33.5222 180.043 32.1178 178.813C31.9797 178.698 30.9667 177.662 30.8055 177.743C30.7365 178.18 32.751 179.974 32.5898 180.457C32.4287 180.94 30.1839 180.055 29.8616 180.377C29.8616 180.377 31.3005 182.436 31.243 182.47C29.781 183.252 29.0673 182.217 27.5363 182.022ZM32.6934 172.648C32.6934 173.395 31.4272 174.246 31.5423 174.948C31.7666 175.658 32.1133 176.324 32.5668 176.915C32.905 177.546 33.3859 178.089 33.9712 178.502C34.7282 178.922 35.5703 179.166 36.4346 179.215C37.3416 179.322 38.261 179.211 39.1168 178.893C39.6118 178.502 38.8175 176.811 39.1168 176.19C39.4161 175.569 38.806 174.902 38.9211 174.177C39.0362 173.453 41.4767 172.947 41.4767 172.303C41.4767 171.658 38.8981 171.152 38.7715 170.508C38.6448 169.864 40.2449 168.702 39.9226 168.208C39.5307 167.642 39.0249 167.164 38.4376 166.805C37.6909 166.585 36.9054 166.531 36.1353 166.644C35.349 166.567 34.5562 166.694 33.8331 167.012C33.315 167.357 33.2345 168.162 32.9352 168.76C32.6359 169.358 33.5222 170.06 33.4186 170.75C33.315 171.44 32.6934 171.946 32.6934 172.648Z" fill="#8337FF"/>
<path d="M174.066 619.849C173.87 619.849 172.915 619.17 172.915 618.986C173.099 618.25 174.918 617.836 174.999 617.146C175.079 616.456 173.283 615.616 173.283 614.845C173.283 604.436 173.698 604.436 175.586 594.211C175.943 592.313 178.843 591.911 179.5 593.694C181.318 598.685 179.937 599.306 180.11 604.609C179.295 604.469 178.513 604.177 177.807 603.746C178.199 602.884 180.731 604.54 181.526 604.057C182.32 603.574 182.458 603.079 183.621 603.079C184.594 602.979 185.57 603.232 186.372 603.792C187.088 604.274 187.655 604.948 188.007 605.736C188.559 606.622 190.217 606.886 190.447 607.921C190.677 608.956 189.768 610.049 189.768 611.05C189.655 612.028 189.391 612.982 188.985 613.879C188.697 614.914 190.136 616.72 189.538 617.525C188.939 618.33 188.214 619.964 187.235 620.458C186.257 620.953 184.357 619.745 183.022 619.745C182.815 619.745 182.516 619.607 182.124 619.607C181.733 619.607 182.124 618.975 181.963 618.929C180.605 617.652 180.812 617.33 179.419 616.099C179.292 615.984 178.084 616.559 177.969 616.674C177.839 617.19 177.678 617.697 177.485 618.192C177.324 618.675 176.852 618.526 176.53 618.836C176.53 618.836 177.22 619.688 177.151 619.711C176.157 620.05 175.087 620.098 174.066 619.849V619.849ZM178.671 610.9C178.671 611.648 179.822 612.177 179.949 612.879C180.075 613.58 178.625 614.638 178.947 615.179C179.269 615.72 180.777 614.719 181.341 615.029C181.905 615.34 181.963 617.652 182.849 617.652C183.736 617.652 183.586 615.731 184.093 615.351C184.599 614.972 184.196 614.581 184.484 613.971C184.78 613.483 184.987 612.945 185.094 612.384C185.209 611.659 188.317 611.234 188.317 610.555C188.151 609.769 187.916 609 187.615 608.255C187.459 607.499 187.191 606.77 186.821 606.092C186.414 605.396 185.884 604.781 185.255 604.275C184.737 603.976 183.356 605.115 182.539 605.115C181.721 605.115 180.501 604.413 179.983 604.747C179.261 605.125 178.62 605.641 178.095 606.265C177.796 606.817 179.592 608.186 179.488 608.876C179.384 609.566 178.728 610.199 178.728 610.9H178.671Z" fill="#8337FF"/>
<path d="M602.43 473.362C602.234 473.362 603.075 474.581 603.121 474.386C603.305 473.661 601.67 472.626 601.739 471.89C601.809 471.154 603.132 470.51 603.132 469.762C603.132 459.411 602.292 459.411 604.191 449.208C604.548 447.311 605.124 447.506 605.78 449.312C607.599 454.304 605.481 454.315 605.642 459.664C606.325 460.013 607.074 460.213 607.84 460.25C608.232 459.388 607.472 457.087 608.266 456.604C609.38 456.103 610.591 455.856 611.812 455.879C613.159 455.879 613.504 458.41 614.414 458.996C615.323 459.583 618.12 458.295 618.673 459.18C619.225 460.066 618.88 461.722 619.11 462.792C619.192 463.866 619.157 464.946 619.007 466.013C619.007 467.163 617.775 467.899 617.476 468.934C617.176 469.969 618.834 472.051 618.212 472.868C617.591 473.684 615.645 473.431 614.69 473.926C613.734 474.42 612.583 475.732 611.236 475.732C611.029 475.732 610.73 473.19 610.35 473.19C609.97 473.19 608.52 475.858 608.359 475.812C607 474.524 608.14 473.339 606.735 472.097C606.609 471.993 607.795 472.937 607.679 473.063C607.61 473.489 605.907 472.695 605.745 473.178C605.584 473.661 606.068 474.489 605.745 474.811C605.745 474.811 605.653 474.271 605.596 474.236C604.203 473.351 603.961 473.546 602.43 473.362ZM605.527 465.794C605.681 466.576 605.897 467.346 606.171 468.094C606.287 468.796 608.151 468.784 608.474 469.325C608.796 469.866 608.22 471.039 608.796 471.361C609.372 471.683 610.212 472.948 611.098 472.948C612.022 472.783 612.889 472.387 613.619 471.798C614.245 471.278 614.768 470.646 615.162 469.935C615.436 469.192 615.622 468.42 615.714 467.634C615.829 466.91 613.746 466.07 613.746 465.437C613.809 464.818 613.809 464.194 613.746 463.574C613.619 462.919 615.634 461.366 615.323 460.86C615.012 460.354 612.583 462.01 612.054 461.699C611.524 461.389 611.616 460.549 610.799 460.549C609.982 460.549 609.337 460.25 608.819 460.549C608.301 460.848 606.92 460.768 606.632 461.32C606.344 461.872 608.462 463.195 608.359 463.885C608.255 464.575 605.527 465.092 605.527 465.794V465.794Z" fill="#8337FF"/>
<path d="M468.126 45.3587C467.93 45.3587 467.792 46.3133 467.838 46.1293C468.111 45.4319 468.338 44.7172 468.517 43.9899C468.754 43.2342 468.95 42.4663 469.104 41.6896C469.104 31.338 468.298 31.4185 470.198 21.1934C470.543 19.2957 470.301 19.6177 470.958 21.435C472.765 26.4267 471.119 26.2427 471.291 31.545C471.291 31.7176 472.028 31.085 472.132 30.9584C472.523 30.0958 474.526 31.246 475.332 30.7629C476.138 30.2798 476.345 27.2089 477.508 27.2089C478.968 27.3356 480.377 27.8088 481.617 28.5891C482.527 29.1757 481.145 31.8901 481.698 32.7872C482.25 33.6844 484.806 33.6269 485.025 34.708C485.188 35.7887 485.238 36.8834 485.174 37.9745C485.16 39.1073 484.993 40.233 484.679 41.3215C484.219 42.3148 483.57 43.2094 482.768 43.9554C482.147 44.7606 481.755 46.2558 480.8 46.7159C479.568 47.2095 478.246 47.4369 476.921 47.383C476.713 47.383 476.426 47.2679 476.034 47.2679C475.643 47.2679 475.631 46.3248 475.47 46.2788C474.112 44.9906 474.02 45.1286 472.615 43.8404C472.489 43.7369 472.063 43.5529 471.948 43.6794C471.878 44.105 473.317 45.2321 473.156 45.7152C472.995 46.1983 471.107 45.7957 470.785 46.1178C470.727 46.1178 470.267 48.0156 470.209 47.9811C468.839 47.1299 469.645 45.5542 468.126 45.3587ZM471.245 37.7905C471.245 38.5496 472.742 39.2397 472.857 39.9413C472.863 40.606 472.987 41.2644 473.225 41.8851C473.536 42.4372 473.778 43.2883 474.376 43.6104C474.975 43.9324 475.919 45.2666 476.805 45.2666C477.828 45.1603 478.812 44.8219 479.683 44.2775C480.224 43.5875 480.64 42.8092 480.915 41.9771C481.203 41.3675 479.511 40.0793 479.626 39.3432C479.741 38.6071 482.124 38.0665 482.124 37.4339C482.124 36.8013 479.027 36.2838 478.9 35.6742C478.774 35.0646 478.958 34.846 478.636 34.34C478.313 33.8339 479.867 31.3035 479.338 30.9929C478.808 30.6824 477.323 32.7412 476.506 32.7412C475.689 32.7412 475.297 32.6032 474.779 32.9482C474.312 33.2078 473.94 33.6112 473.72 34.0984C473.433 34.6505 472.753 35.0186 472.65 35.7087C472.546 36.3988 471.245 37.0774 471.245 37.7905Z" fill="#8337FF"/>
</svg>
